<?xml version="1.0" encoding="utf-8" standalone="no"?>
<!DOCTYPE svg PUBLIC "-//W3C//DTD SVG 1.1//EN"
  "http://www.w3.org/Graphics/SVG/1.1/DTD/svg11.dtd">
<svg xmlns:xlink="http://www.w3.org/1999/xlink" width="450.256875pt" height="270.050625pt" viewBox="0 0 450.256875 270.050625" xmlns="http://www.w3.org/2000/svg" version="1.1">
 <metadata>
  <rdf:RDF xmlns:dc="http://purl.org/dc/elements/1.1/" xmlns:cc="http://creativecommons.org/ns#" xmlns:rdf="http://www.w3.org/1999/02/22-rdf-syntax-ns#">
   <cc:Work>
    <dc:type rdf:resource="http://purl.org/dc/dcmitype/StillImage"/>
    <dc:format>image/svg+xml</dc:format>
    <dc:creator>
     <cc:Agent>
      <dc:title>Matplotlib v3.10.9, https://matplotlib.org/</dc:title>
     </cc:Agent>
    </dc:creator>
   </cc:Work>
  </rdf:RDF>
 </metadata>
 <defs>
  <style type="text/css">*{stroke-linejoin: round; stroke-linecap: butt}</style>
 </defs>
 <g id="figure_1">
  <g id="patch_1">
   <path d="M 0 270.050625 
L 450.256875 270.050625 
L 450.256875 0 
L 0 0 
L 0 270.050625 
z
" style="fill: none; opacity: 0"/>
  </g>
  <g id="axes_1">
   <g id="patch_2">
    <path d="M 27.1 226.4725 
L 431.924063 226.4725 
L 431.924063 7.2 
L 27.1 7.2 
L 27.1 226.4725 
z
" style="fill: none"/>
   </g>
   <g id="FillBetweenPolyCollection_1">
    <defs>
     <path id="mb17a7282b9" d="M 27.1 -43.578125 
L 27.1 -43.59175 
L 27.606663 -43.593169 
L 28.113327 -43.594726 
L 28.61999 -43.596435 
L 29.126654 -43.59831 
L 29.633317 -43.600366 
L 30.13998 -43.602618 
L 30.646644 -43.605084 
L 31.153307 -43.607783 
L 31.659971 -43.610735 
L 32.166634 -43.613963 
L 32.673297 -43.617489 
L 33.179961 -43.62134 
L 33.686624 -43.625544 
L 34.193288 -43.63013 
L 34.699951 -43.635129 
L 35.206615 -43.640577 
L 35.713278 -43.646509 
L 36.219941 -43.652967 
L 36.726605 -43.659992 
L 37.233268 -43.66763 
L 37.739932 -43.675931 
L 38.246595 -43.684945 
L 38.753258 -43.69473 
L 39.259922 -43.705345 
L 39.766585 -43.716855 
L 40.273249 -43.729328 
L 40.779912 -43.742837 
L 41.286575 -43.75746 
L 41.793239 -43.773281 
L 42.299902 -43.790387 
L 42.806566 -43.808872 
L 43.313229 -43.828838 
L 43.819892 -43.850391 
L 44.326556 -43.873643 
L 44.833219 -43.898715 
L 45.339883 -43.925734 
L 45.846546 -43.954834 
L 46.353209 -43.98616 
L 46.859873 -44.019862 
L 47.366536 -44.0561 
L 47.8732 -44.095043 
L 48.379863 -44.13687 
L 48.886527 -44.181768 
L 49.39319 -44.229936 
L 49.899853 -44.281584 
L 50.406517 -44.336931 
L 50.91318 -44.396209 
L 51.419844 -44.459662 
L 51.926507 -44.527544 
L 52.43317 -44.600123 
L 52.939834 -44.677682 
L 53.446497 -44.760515 
L 53.953161 -44.848929 
L 54.459824 -44.943247 
L 54.966487 -45.043806 
L 55.473151 -45.150958 
L 55.979814 -45.26507 
L 56.486478 -45.386524 
L 56.993141 -45.515719 
L 57.499804 -45.653069 
L 58.006468 -45.799005 
L 58.513131 -45.953975 
L 59.019795 -46.118442 
L 59.526458 -46.292889 
L 60.033121 -46.477813 
L 60.539785 -46.67373 
L 61.046448 -46.881174 
L 61.553112 -47.100694 
L 62.059775 -47.332859 
L 62.566439 -47.578253 
L 63.073102 -47.837479 
L 63.579765 -48.111156 
L 64.086429 -48.399921 
L 64.593092 -48.704425 
L 65.099756 -49.025337 
L 65.606419 -49.363343 
L 66.113082 -49.719142 
L 66.619746 -50.093447 
L 67.126409 -50.48699 
L 67.633073 -50.90051 
L 68.139736 -51.334763 
L 68.646399 -51.790516 
L 69.153063 -52.268547 
L 69.659726 -52.769642 
L 70.16639 -53.294597 
L 70.673053 -53.844217 
L 71.179716 -54.419312 
L 71.68638 -55.020695 
L 72.193043 -55.649187 
L 72.699707 -56.305607 
L 73.20637 -56.990775 
L 73.713033 -57.705511 
L 74.219697 -58.450631 
L 74.72636 -59.226945 
L 75.233024 -60.035257 
L 75.739687 -60.876362 
L 76.246351 -61.751041 
L 76.753014 -62.660065 
L 77.259677 -63.604186 
L 77.766341 -64.584139 
L 78.273004 -65.600639 
L 78.779668 -66.654375 
L 79.286331 -67.746013 
L 79.792994 -68.876188 
L 80.299658 -70.045505 
L 80.806321 -71.254535 
L 81.312985 -72.503811 
L 81.819648 -73.793827 
L 82.326311 -75.125035 
L 82.832975 -76.49784 
L 83.339638 -77.912602 
L 83.846302 -79.369626 
L 84.352965 -80.869165 
L 84.859628 -82.411415 
L 85.366292 -83.996514 
L 85.872955 -85.624535 
L 86.379619 -87.295488 
L 86.886282 -89.009314 
L 87.392945 -90.765886 
L 87.899609 -92.565001 
L 88.406272 -94.406383 
L 88.912936 -96.289679 
L 89.419599 -98.214457 
L 89.926263 -100.180201 
L 90.432926 -102.186313 
L 90.939589 -104.23211 
L 91.446253 -106.316823 
L 91.952916 -108.439593 
L 92.45958 -110.599473 
L 92.966243 -112.795425 
L 93.472906 -115.026321 
L 93.97957 -117.290939 
L 94.486233 -119.587966 
L 94.992897 -121.915997 
L 95.49956 -124.273535 
L 96.006223 -126.658989 
L 96.512887 -129.070678 
L 97.01955 -131.506832 
L 97.526214 -133.965588 
L 98.032877 -136.444997 
L 98.53954 -138.943024 
L 99.046204 -141.457548 
L 99.552867 -143.986366 
L 100.059531 -146.527196 
L 100.566194 -149.077677 
L 101.072857 -151.635376 
L 101.579521 -154.197786 
L 102.086184 -156.762335 
L 102.592848 -159.326387 
L 103.099511 -161.887246 
L 103.606175 -164.442159 
L 104.112838 -166.988325 
L 104.619501 -169.522896 
L 105.126165 -172.042982 
L 105.632828 -174.545658 
L 106.139492 -177.027969 
L 106.646155 -179.486933 
L 107.152818 -181.919552 
L 107.659482 -184.322812 
L 108.166145 -186.693694 
L 108.672809 -189.029177 
L 109.179472 -191.326245 
L 109.686135 -193.581894 
L 110.192799 -195.79314 
L 110.699462 -197.95702 
L 111.206126 -200.070605 
L 111.712789 -202.131004 
L 112.219452 -204.135369 
L 112.726116 -206.080903 
L 113.232779 -207.964866 
L 113.739443 -209.784583 
L 114.246106 -211.537448 
L 114.752769 -213.220932 
L 115.259433 -214.832587 
L 115.766096 -216.370054 
L 116.27276 -217.831069 
L 116.779423 -219.213466 
L 117.286087 -220.515184 
L 117.79275 -221.734273 
L 118.299413 -222.868896 
L 118.806077 -223.917337 
L 119.31274 -224.878004 
L 119.819404 -225.749431 
L 120.326067 -226.530286 
L 120.83273 -227.21937 
L 121.339394 -227.815621 
L 121.846057 -228.318122 
L 122.352721 -228.726094 
L 122.859384 -229.038907 
L 123.366047 -229.256075 
L 123.872711 -229.377261 
L 124.379374 -229.402278 
L 124.886038 -229.331085 
L 125.392701 -229.163795 
L 125.899364 -228.900667 
L 126.406028 -228.542108 
L 126.912691 -228.088674 
L 127.419355 -227.541067 
L 127.926018 -226.900133 
L 128.432681 -226.166858 
L 128.939345 -225.342371 
L 129.446008 -224.427934 
L 129.952672 -223.424945 
L 130.459335 -222.33493 
L 130.965999 -221.159541 
L 131.472662 -219.900554 
L 131.979325 -218.55986 
L 132.485989 -217.139463 
L 132.992652 -215.641474 
L 133.499316 -214.068108 
L 134.005979 -212.421675 
L 134.512642 -210.704578 
L 135.019306 -208.919303 
L 135.525969 -207.068418 
L 136.032633 -205.154563 
L 136.539296 -203.180445 
L 137.045959 -201.148832 
L 137.552623 -199.062545 
L 138.059286 -196.924455 
L 138.56595 -194.737471 
L 139.072613 -192.504541 
L 139.579276 -190.228637 
L 140.08594 -187.912754 
L 140.592603 -185.559903 
L 141.099267 -183.173102 
L 141.60593 -180.755373 
L 142.112593 -178.309733 
L 142.619257 -175.83919 
L 143.12592 -173.346733 
L 143.632584 -170.835333 
L 144.139247 -168.307931 
L 144.645911 -165.767437 
L 145.152574 -163.216719 
L 145.659237 -160.658605 
L 146.165901 -158.095874 
L 146.672564 -155.53125 
L 147.179228 -152.967402 
L 147.685891 -150.406937 
L 148.192554 -147.852394 
L 148.699218 -145.306247 
L 149.205881 -142.770893 
L 149.712545 -140.248656 
L 150.219208 -137.74178 
L 150.725871 -135.252431 
L 151.232535 -132.782686 
L 151.739198 -130.334542 
L 152.245862 -127.909904 
L 152.752525 -125.510592 
L 153.259188 -123.138334 
L 153.765852 -120.794767 
L 154.272515 -118.481437 
L 154.779179 -116.199797 
L 155.285842 -113.951207 
L 155.792505 -111.736938 
L 156.299169 -109.558166 
L 156.805832 -107.415975 
L 157.312496 -105.31136 
L 157.819159 -103.245225 
L 158.325823 -101.218387 
L 158.832486 -99.231572 
L 159.339149 -97.285423 
L 159.845813 -95.380498 
L 160.352476 -93.517272 
L 160.85914 -91.696139 
L 161.365803 -89.917416 
L 161.872466 -88.181343 
L 162.37913 -86.488085 
L 162.885793 -84.837737 
L 163.392457 -83.230325 
L 163.89912 -81.665808 
L 164.405783 -80.144081 
L 164.912447 -78.664978 
L 165.41911 -77.228277 
L 165.925774 -75.833698 
L 166.432437 -74.480908 
L 166.9391 -73.169528 
L 167.445764 -71.899129 
L 167.952427 -70.669237 
L 168.459091 -69.479341 
L 168.965754 -68.328889 
L 169.472417 -67.217292 
L 169.979081 -66.143931 
L 170.485744 -65.108157 
L 170.992408 -64.109291 
L 171.499071 -63.146632 
L 172.005735 -62.219456 
L 172.512398 -61.327018 
L 173.019061 -60.468557 
L 173.525725 -59.643298 
L 174.032388 -58.850451 
L 174.539052 -58.089219 
L 175.045715 -57.358793 
L 175.552378 -56.65836 
L 176.059042 -55.987103 
L 176.565705 -55.344202 
L 177.072369 -54.728836 
L 177.579032 -54.140185 
L 178.085695 -53.577433 
L 178.592359 -53.039767 
L 179.099022 -52.526381 
L 179.605686 -52.036473 
L 180.112349 -51.569252 
L 180.619012 -51.123935 
L 181.125676 -50.699751 
L 181.632339 -50.295937 
L 182.139003 -49.911746 
L 182.645666 -49.546442 
L 183.152329 -49.199303 
L 183.658993 -48.869621 
L 184.165656 -48.556705 
L 184.67232 -48.259877 
L 185.178983 -47.978477 
L 185.685647 -47.711859 
L 186.19231 -47.459398 
L 186.698973 -47.220481 
L 187.205637 -46.994514 
L 187.7123 -46.780923 
L 188.218964 -46.579146 
L 188.725627 -46.388643 
L 189.23229 -46.20889 
L 189.738954 -46.039379 
L 190.245617 -45.87962 
L 190.752281 -45.729141 
L 191.258944 -45.587487 
L 191.765607 -45.454218 
L 192.272271 -45.328912 
L 192.778934 -45.211163 
L 193.285598 -45.100581 
L 193.792261 -44.996792 
L 194.298924 -44.899436 
L 194.805588 -44.808171 
L 195.312251 -44.722667 
L 195.818915 -44.64261 
L 196.325578 -44.567698 
L 196.832241 -44.497646 
L 197.338905 -44.432179 
L 197.845568 -44.371036 
L 198.352232 -44.31397 
L 198.858895 -44.260743 
L 199.365559 -44.211133 
L 199.872222 -44.164925 
L 200.378885 -44.121917 
L 200.885549 -44.081918 
L 201.392212 -44.044746 
L 201.898876 -44.01023 
L 202.405539 -43.978206 
L 202.912202 -43.948521 
L 203.418866 -43.921031 
L 203.925529 -43.8956 
L 204.432193 -43.872098 
L 204.938856 -43.850405 
L 205.445519 -43.830408 
L 205.952183 -43.811999 
L 206.458846 -43.79508 
L 206.96551 -43.779555 
L 207.472173 -43.765339 
L 207.978836 -43.752348 
L 208.4855 -43.740507 
L 208.992163 -43.729746 
L 209.498827 -43.719997 
L 210.00549 -43.7112 
L 210.512153 -43.703298 
L 211.018817 -43.69624 
L 211.52548 -43.689976 
L 212.032144 -43.684463 
L 212.538807 -43.679659 
L 213.045471 -43.675529 
L 213.552134 -43.672038 
L 214.058797 -43.669157 
L 214.565461 -43.666857 
L 215.072124 -43.665115 
L 215.578788 -43.663909 
L 216.085451 -43.66322 
L 216.592114 -43.663032 
L 217.098778 -43.663332 
L 217.605441 -43.664106 
L 218.112105 -43.665348 
L 218.618768 -43.667048 
L 219.125431 -43.669203 
L 219.632095 -43.671809 
L 220.138758 -43.674866 
L 220.645422 -43.678375 
L 221.152085 -43.682337 
L 221.658748 -43.686758 
L 222.165412 -43.691645 
L 222.672075 -43.697005 
L 223.178739 -43.702847 
L 223.685402 -43.709184 
L 224.192065 -43.716028 
L 224.698729 -43.723395 
L 225.205392 -43.7313 
L 225.712056 -43.73976 
L 226.218719 -43.748797 
L 226.725383 -43.758431 
L 227.232046 -43.768683 
L 227.738709 -43.77958 
L 228.245373 -43.791146 
L 228.752036 -43.803409 
L 229.2587 -43.816398 
L 229.765363 -43.830144 
L 230.272026 -43.844679 
L 230.77869 -43.860037 
L 231.285353 -43.876255 
L 231.792017 -43.893369 
L 232.29868 -43.911419 
L 232.805343 -43.930446 
L 233.312007 -43.950494 
L 233.81867 -43.971605 
L 234.325334 -43.993829 
L 234.831997 -44.017212 
L 235.33866 -44.041805 
L 235.845324 -44.067662 
L 236.351987 -44.094835 
L 236.858651 -44.123383 
L 237.365314 -44.153363 
L 237.871977 -44.184836 
L 238.378641 -44.217866 
L 238.885304 -44.252516 
L 239.391968 -44.288856 
L 239.898631 -44.326954 
L 240.405295 -44.366883 
L 240.911958 -44.408716 
L 241.418621 -44.45253 
L 241.925285 -44.498405 
L 242.431948 -44.546422 
L 242.938612 -44.596665 
L 243.445275 -44.649221 
L 243.951938 -44.704178 
L 244.458602 -44.761628 
L 244.965265 -44.821666 
L 245.471929 -44.884389 
L 245.978592 -44.949894 
L 246.485255 -45.018286 
L 246.991919 -45.089668 
L 247.498582 -45.164148 
L 248.005246 -45.241836 
L 248.511909 -45.322844 
L 249.018572 -45.407288 
L 249.525236 -45.495287 
L 250.031899 -45.58696 
L 250.538563 -45.682431 
L 251.045226 -45.781827 
L 251.551889 -45.885275 
L 252.058553 -45.992908 
L 252.565216 -46.104858 
L 253.07188 -46.221263 
L 253.578543 -46.342261 
L 254.085207 -46.467993 
L 254.59187 -46.598604 
L 255.098533 -46.734239 
L 255.605197 -46.875046 
L 256.11186 -47.021177 
L 256.618524 -47.172784 
L 257.125187 -47.330021 
L 257.63185 -47.493046 
L 258.138514 -47.662018 
L 258.645177 -47.837096 
L 259.151841 -48.018444 
L 259.658504 -48.206225 
L 260.165167 -48.400603 
L 260.671831 -48.601746 
L 261.178494 -48.809822 
L 261.685158 -49.025 
L 262.191821 -49.247448 
L 262.698484 -49.477339 
L 263.205148 -49.714842 
L 263.711811 -49.960129 
L 264.218475 -50.213373 
L 264.725138 -50.474745 
L 265.231801 -50.744417 
L 265.738465 -51.022561 
L 266.245128 -51.309346 
L 266.751792 -51.604945 
L 267.258455 -51.909524 
L 267.765119 -52.223254 
L 268.271782 -52.546299 
L 268.778445 -52.878826 
L 269.285109 -53.220996 
L 269.791772 -53.572971 
L 270.298436 -53.934909 
L 270.805099 -54.306966 
L 271.311762 -54.689293 
L 271.818426 -55.082042 
L 272.325089 -55.485356 
L 272.831753 -55.899378 
L 273.338416 -56.324247 
L 273.845079 -56.760095 
L 274.351743 -57.20705 
L 274.858406 -57.665237 
L 275.36507 -58.134773 
L 275.871733 -58.615771 
L 276.378396 -59.108338 
L 276.88506 -59.612572 
L 277.391723 -60.128569 
L 277.898387 -60.656415 
L 278.40505 -61.196188 
L 278.911713 -61.747961 
L 279.418377 -62.311797 
L 279.92504 -62.887751 
L 280.431704 -63.475871 
L 280.938367 -64.076195 
L 281.445031 -64.688751 
L 281.951694 -65.313559 
L 282.458357 -65.950629 
L 282.965021 -66.599959 
L 283.471684 -67.261539 
L 283.978348 -67.935347 
L 284.485011 -68.62135 
L 284.991674 -69.319505 
L 285.498338 -70.029756 
L 286.005001 -70.752036 
L 286.511665 -71.486265 
L 287.018328 -72.232352 
L 287.524991 -72.990194 
L 288.031655 -73.759672 
L 288.538318 -74.540659 
L 289.044982 -75.33301 
L 289.551645 -76.13657 
L 290.058308 -76.95117 
L 290.564972 -77.776625 
L 291.071635 -78.612741 
L 291.578299 -79.459304 
L 292.084962 -80.316092 
L 292.591625 -81.182866 
L 293.098289 -82.059372 
L 293.604952 -82.945344 
L 294.111616 -83.8405 
L 294.618279 -84.744545 
L 295.124943 -85.657171 
L 295.631606 -86.578052 
L 296.138269 -87.506852 
L 296.644933 -88.443219 
L 297.151596 -89.386786 
L 297.65826 -90.337175 
L 298.164923 -91.293992 
L 298.671586 -92.25683 
L 299.17825 -93.22527 
L 299.684913 -94.198878 
L 300.191577 -95.177208 
L 300.69824 -96.159801 
L 301.204903 -97.146186 
L 301.711567 -98.13588 
L 302.21823 -99.128388 
L 302.724894 -100.123202 
L 303.231557 -101.119806 
L 303.73822 -102.117671 
L 304.244884 -103.116259 
L 304.751547 -104.115021 
L 305.258211 -105.113398 
L 305.764874 -106.110825 
L 306.271537 -107.106726 
L 306.778201 -108.100517 
L 307.284864 -109.091608 
L 307.791528 -110.079401 
L 308.298191 -111.063292 
L 308.804855 -112.042672 
L 309.311518 -113.016925 
L 309.818181 -113.985433 
L 310.324845 -114.947572 
L 310.831508 -115.902716 
L 311.338172 -116.850235 
L 311.844835 -117.789499 
L 312.351498 -118.719875 
L 312.858162 -119.640731 
L 313.364825 -120.551434 
L 313.871489 -121.451352 
L 314.378152 -122.339855 
L 314.884815 -123.216315 
L 315.391479 -124.080108 
L 315.898142 -124.930612 
L 316.404806 -125.767212 
L 316.911469 -126.589294 
L 317.418132 -127.396256 
L 317.924796 -128.187497 
L 318.431459 -128.962426 
L 318.938123 -129.720462 
L 319.444786 -130.461029 
L 319.951449 -131.183564 
L 320.458113 -131.887513 
L 320.964776 -132.572332 
L 321.47144 -133.23749 
L 321.978103 -133.882469 
L 322.484767 -134.506763 
L 322.99143 -135.10988 
L 323.498093 -135.691343 
L 324.004757 -136.250689 
L 324.51142 -136.787472 
L 325.018084 -137.301261 
L 325.524747 -137.791642 
L 326.03141 -138.25822 
L 326.538074 -138.700615 
L 327.044737 -139.118469 
L 327.551401 -139.511439 
L 328.058064 -139.879205 
L 328.564727 -140.221464 
L 329.071391 -140.537935 
L 329.578054 -140.828357 
L 330.084718 -141.09249 
L 330.591381 -141.330115 
L 331.098044 -141.541036 
L 331.604708 -141.725076 
L 332.111371 -141.882083 
L 332.618035 -142.011927 
L 333.124698 -142.114498 
L 333.631361 -142.189712 
L 334.138025 -142.237505 
L 334.644688 -142.257838 
L 335.151352 -142.250693 
L 335.658015 -142.216078 
L 336.164679 -142.154019 
L 336.671342 -142.06457 
L 337.178005 -141.947806 
L 337.684669 -141.803822 
L 338.191332 -141.63274 
L 338.697996 -141.434701 
L 339.204659 -141.209871 
L 339.711322 -140.958436 
L 340.217986 -140.680604 
L 340.724649 -140.376605 
L 341.231313 -140.04669 
L 341.737976 -139.691131 
L 342.244639 -139.31022 
L 342.751303 -138.904269 
L 343.257966 -138.47361 
L 343.76463 -138.018594 
L 344.271293 -137.53959 
L 344.777956 -137.036986 
L 345.28462 -136.511188 
L 345.791283 -135.962617 
L 346.297947 -135.391713 
L 346.80461 -134.798932 
L 347.311273 -134.184742 
L 347.817937 -133.54963 
L 348.3246 -132.894094 
L 348.831264 -132.218646 
L 349.337927 -131.523813 
L 349.844591 -130.810131 
L 350.351254 -130.078149 
L 350.857917 -129.328428 
L 351.364581 -128.561535 
L 351.871244 -127.77805 
L 352.377908 -126.97856 
L 352.884571 -126.16366 
L 353.391234 -125.333953 
L 353.897898 -124.490047 
L 354.404561 -123.632555 
L 354.911225 -122.762097 
L 355.417888 -121.879296 
L 355.924551 -120.984779 
L 356.431215 -120.079174 
L 356.937878 -119.163113 
L 357.444542 -118.237227 
L 357.951205 -117.302151 
L 358.457868 -116.358515 
L 358.964532 -115.406953 
L 359.471195 -114.448093 
L 359.977859 -113.482564 
L 360.484522 -112.510991 
L 360.991185 -111.533995 
L 361.497849 -110.552193 
L 362.004512 -109.566197 
L 362.511176 -108.576614 
L 363.017839 -107.584045 
L 363.524503 -106.589084 
L 364.031166 -105.592317 
L 364.537829 -104.594325 
L 365.044493 -103.595677 
L 365.551156 -102.596937 
L 366.05782 -101.598657 
L 366.564483 -100.601381 
L 367.071146 -99.605642 
L 367.57781 -98.611964 
L 368.084473 -97.620857 
L 368.591137 -96.632822 
L 369.0978 -95.648349 
L 369.604463 -94.667915 
L 370.111127 -93.691984 
L 370.61779 -92.721009 
L 371.124454 -91.755428 
L 371.631117 -90.795669 
L 372.13778 -89.842145 
L 372.644444 -88.895255 
L 373.151107 -87.955386 
L 373.657771 -87.022909 
L 374.164434 -86.098184 
L 374.671097 -85.181554 
L 375.177761 -84.273351 
L 375.684424 -83.37389 
L 376.191088 -82.483474 
L 376.697751 -81.60239 
L 377.204415 -80.730913 
L 377.711078 -79.869301 
L 378.217741 -79.017801 
L 378.724405 -78.176643 
L 379.231068 -77.346045 
L 379.737732 -76.526211 
L 380.244395 -75.71733 
L 380.751058 -74.919578 
L 381.257722 -74.133118 
L 381.764385 -73.358099 
L 382.271049 -72.594656 
L 382.777712 -71.842913 
L 383.284375 -71.10298 
L 383.791039 -70.374954 
L 384.297702 -69.65892 
L 384.804366 -68.954951 
L 385.311029 -68.263109 
L 385.817692 -67.583442 
L 386.324356 -66.91599 
L 386.831019 -66.260778 
L 387.337683 -65.617822 
L 387.844346 -64.987129 
L 388.351009 -64.368694 
L 388.857673 -63.762502 
L 389.364336 -63.168528 
L 389.871 -62.586739 
L 390.377663 -62.017093 
L 390.884327 -61.459537 
L 391.39099 -60.914013 
L 391.897653 -60.380451 
L 392.404317 -59.858778 
L 392.91098 -59.348908 
L 393.417644 -58.850753 
L 393.924307 -58.364215 
L 394.43097 -57.889191 
L 394.937634 -57.425571 
L 395.444297 -56.973239 
L 395.950961 -56.532076 
L 396.457624 -56.101953 
L 396.964287 -55.682742 
L 397.470951 -55.274305 
L 397.977614 -54.876503 
L 398.484278 -54.489192 
L 398.990941 -54.112224 
L 399.497604 -53.745448 
L 400.004268 -53.38871 
L 400.510931 -53.041854 
L 401.017595 -52.704718 
L 401.524258 -52.377142 
L 402.030921 -52.058962 
L 402.537585 -51.750011 
L 403.044248 -51.450123 
L 403.550912 -51.159129 
L 404.057575 -50.876858 
L 404.564239 -50.603141 
L 405.070902 -50.337806 
L 405.577565 -50.080682 
L 406.084229 -49.831597 
L 406.590892 -49.590379 
L 407.097556 -49.356856 
L 407.604219 -49.130856 
L 408.110882 -48.91221 
L 408.617546 -48.700746 
L 409.124209 -48.496296 
L 409.630873 -48.298691 
L 410.137536 -48.107764 
L 410.644199 -47.923349 
L 411.150863 -47.745281 
L 411.657526 -47.573398 
L 412.16419 -47.407538 
L 412.670853 -47.247542 
L 413.177516 -47.093251 
L 413.68418 -46.94451 
L 414.190843 -46.801166 
L 414.697507 -46.663066 
L 415.20417 -46.530061 
L 415.710833 -46.402004 
L 416.217497 -46.278751 
L 416.72416 -46.160157 
L 417.230824 -46.046085 
L 417.737487 -45.936395 
L 418.244151 -45.830952 
L 418.750814 -45.729626 
L 419.257477 -45.632284 
L 419.764141 -45.5388 
L 420.270804 -45.44905 
L 420.777468 -45.362911 
L 421.284131 -45.280264 
L 421.790794 -45.200992 
L 422.297458 -45.124981 
L 422.804121 -45.05212 
L 423.310785 -44.982299 
L 423.817448 -44.915414 
L 424.324111 -44.851359 
L 424.830775 -44.790036 
L 425.337438 -44.731344 
L 425.844102 -44.67519 
L 426.350765 -44.621479 
L 426.857428 -44.570122 
L 427.364092 -44.52103 
L 427.870755 -44.474118 
L 428.377419 -44.429302 
L 428.884082 -44.386504 
L 429.390745 -44.345643 
L 429.897409 -44.306645 
L 430.404072 -44.269436 
L 430.910736 -44.233945 
L 431.417399 -44.200102 
L 431.924063 -44.167842 
L 431.924063 -43.578125 
L 431.924063 -43.578125 
L 431.417399 -43.578125 
L 430.910736 -43.578125 
L 430.404072 -43.578125 
L 429.897409 -43.578125 
L 429.390745 -43.578125 
L 428.884082 -43.578125 
L 428.377419 -43.578125 
L 427.870755 -43.578125 
L 427.364092 -43.578125 
L 426.857428 -43.578125 
L 426.350765 -43.578125 
L 425.844102 -43.578125 
L 425.337438 -43.578125 
L 424.830775 -43.578125 
L 424.324111 -43.578125 
L 423.817448 -43.578125 
L 423.310785 -43.578125 
L 422.804121 -43.578125 
L 422.297458 -43.578125 
L 421.790794 -43.578125 
L 421.284131 -43.578125 
L 420.777468 -43.578125 
L 420.270804 -43.578125 
L 419.764141 -43.578125 
L 419.257477 -43.578125 
L 418.750814 -43.578125 
L 418.244151 -43.578125 
L 417.737487 -43.578125 
L 417.230824 -43.578125 
L 416.72416 -43.578125 
L 416.217497 -43.578125 
L 415.710833 -43.578125 
L 415.20417 -43.578125 
L 414.697507 -43.578125 
L 414.190843 -43.578125 
L 413.68418 -43.578125 
L 413.177516 -43.578125 
L 412.670853 -43.578125 
L 412.16419 -43.578125 
L 411.657526 -43.578125 
L 411.150863 -43.578125 
L 410.644199 -43.578125 
L 410.137536 -43.578125 
L 409.630873 -43.578125 
L 409.124209 -43.578125 
L 408.617546 -43.578125 
L 408.110882 -43.578125 
L 407.604219 -43.578125 
L 407.097556 -43.578125 
L 406.590892 -43.578125 
L 406.084229 -43.578125 
L 405.577565 -43.578125 
L 405.070902 -43.578125 
L 404.564239 -43.578125 
L 404.057575 -43.578125 
L 403.550912 -43.578125 
L 403.044248 -43.578125 
L 402.537585 -43.578125 
L 402.030921 -43.578125 
L 401.524258 -43.578125 
L 401.017595 -43.578125 
L 400.510931 -43.578125 
L 400.004268 -43.578125 
L 399.497604 -43.578125 
L 398.990941 -43.578125 
L 398.484278 -43.578125 
L 397.977614 -43.578125 
L 397.470951 -43.578125 
L 396.964287 -43.578125 
L 396.457624 -43.578125 
L 395.950961 -43.578125 
L 395.444297 -43.578125 
L 394.937634 -43.578125 
L 394.43097 -43.578125 
L 393.924307 -43.578125 
L 393.417644 -43.578125 
L 392.91098 -43.578125 
L 392.404317 -43.578125 
L 391.897653 -43.578125 
L 391.39099 -43.578125 
L 390.884327 -43.578125 
L 390.377663 -43.578125 
L 389.871 -43.578125 
L 389.364336 -43.578125 
L 388.857673 -43.578125 
L 388.351009 -43.578125 
L 387.844346 -43.578125 
L 387.337683 -43.578125 
L 386.831019 -43.578125 
L 386.324356 -43.578125 
L 385.817692 -43.578125 
L 385.311029 -43.578125 
L 384.804366 -43.578125 
L 384.297702 -43.578125 
L 383.791039 -43.578125 
L 383.284375 -43.578125 
L 382.777712 -43.578125 
L 382.271049 -43.578125 
L 381.764385 -43.578125 
L 381.257722 -43.578125 
L 380.751058 -43.578125 
L 380.244395 -43.578125 
L 379.737732 -43.578125 
L 379.231068 -43.578125 
L 378.724405 -43.578125 
L 378.217741 -43.578125 
L 377.711078 -43.578125 
L 377.204415 -43.578125 
L 376.697751 -43.578125 
L 376.191088 -43.578125 
L 375.684424 -43.578125 
L 375.177761 -43.578125 
L 374.671097 -43.578125 
L 374.164434 -43.578125 
L 373.657771 -43.578125 
L 373.151107 -43.578125 
L 372.644444 -43.578125 
L 372.13778 -43.578125 
L 371.631117 -43.578125 
L 371.124454 -43.578125 
L 370.61779 -43.578125 
L 370.111127 -43.578125 
L 369.604463 -43.578125 
L 369.0978 -43.578125 
L 368.591137 -43.578125 
L 368.084473 -43.578125 
L 367.57781 -43.578125 
L 367.071146 -43.578125 
L 366.564483 -43.578125 
L 366.05782 -43.578125 
L 365.551156 -43.578125 
L 365.044493 -43.578125 
L 364.537829 -43.578125 
L 364.031166 -43.578125 
L 363.524503 -43.578125 
L 363.017839 -43.578125 
L 362.511176 -43.578125 
L 362.004512 -43.578125 
L 361.497849 -43.578125 
L 360.991185 -43.578125 
L 360.484522 -43.578125 
L 359.977859 -43.578125 
L 359.471195 -43.578125 
L 358.964532 -43.578125 
L 358.457868 -43.578125 
L 357.951205 -43.578125 
L 357.444542 -43.578125 
L 356.937878 -43.578125 
L 356.431215 -43.578125 
L 355.924551 -43.578125 
L 355.417888 -43.578125 
L 354.911225 -43.578125 
L 354.404561 -43.578125 
L 353.897898 -43.578125 
L 353.391234 -43.578125 
L 352.884571 -43.578125 
L 352.377908 -43.578125 
L 351.871244 -43.578125 
L 351.364581 -43.578125 
L 350.857917 -43.578125 
L 350.351254 -43.578125 
L 349.844591 -43.578125 
L 349.337927 -43.578125 
L 348.831264 -43.578125 
L 348.3246 -43.578125 
L 347.817937 -43.578125 
L 347.311273 -43.578125 
L 346.80461 -43.578125 
L 346.297947 -43.578125 
L 345.791283 -43.578125 
L 345.28462 -43.578125 
L 344.777956 -43.578125 
L 344.271293 -43.578125 
L 343.76463 -43.578125 
L 343.257966 -43.578125 
L 342.751303 -43.578125 
L 342.244639 -43.578125 
L 341.737976 -43.578125 
L 341.231313 -43.578125 
L 340.724649 -43.578125 
L 340.217986 -43.578125 
L 339.711322 -43.578125 
L 339.204659 -43.578125 
L 338.697996 -43.578125 
L 338.191332 -43.578125 
L 337.684669 -43.578125 
L 337.178005 -43.578125 
L 336.671342 -43.578125 
L 336.164679 -43.578125 
L 335.658015 -43.578125 
L 335.151352 -43.578125 
L 334.644688 -43.578125 
L 334.138025 -43.578125 
L 333.631361 -43.578125 
L 333.124698 -43.578125 
L 332.618035 -43.578125 
L 332.111371 -43.578125 
L 331.604708 -43.578125 
L 331.098044 -43.578125 
L 330.591381 -43.578125 
L 330.084718 -43.578125 
L 329.578054 -43.578125 
L 329.071391 -43.578125 
L 328.564727 -43.578125 
L 328.058064 -43.578125 
L 327.551401 -43.578125 
L 327.044737 -43.578125 
L 326.538074 -43.578125 
L 326.03141 -43.578125 
L 325.524747 -43.578125 
L 325.018084 -43.578125 
L 324.51142 -43.578125 
L 324.004757 -43.578125 
L 323.498093 -43.578125 
L 322.99143 -43.578125 
L 322.484767 -43.578125 
L 321.978103 -43.578125 
L 321.47144 -43.578125 
L 320.964776 -43.578125 
L 320.458113 -43.578125 
L 319.951449 -43.578125 
L 319.444786 -43.578125 
L 318.938123 -43.578125 
L 318.431459 -43.578125 
L 317.924796 -43.578125 
L 317.418132 -43.578125 
L 316.911469 -43.578125 
L 316.404806 -43.578125 
L 315.898142 -43.578125 
L 315.391479 -43.578125 
L 314.884815 -43.578125 
L 314.378152 -43.578125 
L 313.871489 -43.578125 
L 313.364825 -43.578125 
L 312.858162 -43.578125 
L 312.351498 -43.578125 
L 311.844835 -43.578125 
L 311.338172 -43.578125 
L 310.831508 -43.578125 
L 310.324845 -43.578125 
L 309.818181 -43.578125 
L 309.311518 -43.578125 
L 308.804855 -43.578125 
L 308.298191 -43.578125 
L 307.791528 -43.578125 
L 307.284864 -43.578125 
L 306.778201 -43.578125 
L 306.271537 -43.578125 
L 305.764874 -43.578125 
L 305.258211 -43.578125 
L 304.751547 -43.578125 
L 304.244884 -43.578125 
L 303.73822 -43.578125 
L 303.231557 -43.578125 
L 302.724894 -43.578125 
L 302.21823 -43.578125 
L 301.711567 -43.578125 
L 301.204903 -43.578125 
L 300.69824 -43.578125 
L 300.191577 -43.578125 
L 299.684913 -43.578125 
L 299.17825 -43.578125 
L 298.671586 -43.578125 
L 298.164923 -43.578125 
L 297.65826 -43.578125 
L 297.151596 -43.578125 
L 296.644933 -43.578125 
L 296.138269 -43.578125 
L 295.631606 -43.578125 
L 295.124943 -43.578125 
L 294.618279 -43.578125 
L 294.111616 -43.578125 
L 293.604952 -43.578125 
L 293.098289 -43.578125 
L 292.591625 -43.578125 
L 292.084962 -43.578125 
L 291.578299 -43.578125 
L 291.071635 -43.578125 
L 290.564972 -43.578125 
L 290.058308 -43.578125 
L 289.551645 -43.578125 
L 289.044982 -43.578125 
L 288.538318 -43.578125 
L 288.031655 -43.578125 
L 287.524991 -43.578125 
L 287.018328 -43.578125 
L 286.511665 -43.578125 
L 286.005001 -43.578125 
L 285.498338 -43.578125 
L 284.991674 -43.578125 
L 284.485011 -43.578125 
L 283.978348 -43.578125 
L 283.471684 -43.578125 
L 282.965021 -43.578125 
L 282.458357 -43.578125 
L 281.951694 -43.578125 
L 281.445031 -43.578125 
L 280.938367 -43.578125 
L 280.431704 -43.578125 
L 279.92504 -43.578125 
L 279.418377 -43.578125 
L 278.911713 -43.578125 
L 278.40505 -43.578125 
L 277.898387 -43.578125 
L 277.391723 -43.578125 
L 276.88506 -43.578125 
L 276.378396 -43.578125 
L 275.871733 -43.578125 
L 275.36507 -43.578125 
L 274.858406 -43.578125 
L 274.351743 -43.578125 
L 273.845079 -43.578125 
L 273.338416 -43.578125 
L 272.831753 -43.578125 
L 272.325089 -43.578125 
L 271.818426 -43.578125 
L 271.311762 -43.578125 
L 270.805099 -43.578125 
L 270.298436 -43.578125 
L 269.791772 -43.578125 
L 269.285109 -43.578125 
L 268.778445 -43.578125 
L 268.271782 -43.578125 
L 267.765119 -43.578125 
L 267.258455 -43.578125 
L 266.751792 -43.578125 
L 266.245128 -43.578125 
L 265.738465 -43.578125 
L 265.231801 -43.578125 
L 264.725138 -43.578125 
L 264.218475 -43.578125 
L 263.711811 -43.578125 
L 263.205148 -43.578125 
L 262.698484 -43.578125 
L 262.191821 -43.578125 
L 261.685158 -43.578125 
L 261.178494 -43.578125 
L 260.671831 -43.578125 
L 260.165167 -43.578125 
L 259.658504 -43.578125 
L 259.151841 -43.578125 
L 258.645177 -43.578125 
L 258.138514 -43.578125 
L 257.63185 -43.578125 
L 257.125187 -43.578125 
L 256.618524 -43.578125 
L 256.11186 -43.578125 
L 255.605197 -43.578125 
L 255.098533 -43.578125 
L 254.59187 -43.578125 
L 254.085207 -43.578125 
L 253.578543 -43.578125 
L 253.07188 -43.578125 
L 252.565216 -43.578125 
L 252.058553 -43.578125 
L 251.551889 -43.578125 
L 251.045226 -43.578125 
L 250.538563 -43.578125 
L 250.031899 -43.578125 
L 249.525236 -43.578125 
L 249.018572 -43.578125 
L 248.511909 -43.578125 
L 248.005246 -43.578125 
L 247.498582 -43.578125 
L 246.991919 -43.578125 
L 246.485255 -43.578125 
L 245.978592 -43.578125 
L 245.471929 -43.578125 
L 244.965265 -43.578125 
L 244.458602 -43.578125 
L 243.951938 -43.578125 
L 243.445275 -43.578125 
L 242.938612 -43.578125 
L 242.431948 -43.578125 
L 241.925285 -43.578125 
L 241.418621 -43.578125 
L 240.911958 -43.578125 
L 240.405295 -43.578125 
L 239.898631 -43.578125 
L 239.391968 -43.578125 
L 238.885304 -43.578125 
L 238.378641 -43.578125 
L 237.871977 -43.578125 
L 237.365314 -43.578125 
L 236.858651 -43.578125 
L 236.351987 -43.578125 
L 235.845324 -43.578125 
L 235.33866 -43.578125 
L 234.831997 -43.578125 
L 234.325334 -43.578125 
L 233.81867 -43.578125 
L 233.312007 -43.578125 
L 232.805343 -43.578125 
L 232.29868 -43.578125 
L 231.792017 -43.578125 
L 231.285353 -43.578125 
L 230.77869 -43.578125 
L 230.272026 -43.578125 
L 229.765363 -43.578125 
L 229.2587 -43.578125 
L 228.752036 -43.578125 
L 228.245373 -43.578125 
L 227.738709 -43.578125 
L 227.232046 -43.578125 
L 226.725383 -43.578125 
L 226.218719 -43.578125 
L 225.712056 -43.578125 
L 225.205392 -43.578125 
L 224.698729 -43.578125 
L 224.192065 -43.578125 
L 223.685402 -43.578125 
L 223.178739 -43.578125 
L 222.672075 -43.578125 
L 222.165412 -43.578125 
L 221.658748 -43.578125 
L 221.152085 -43.578125 
L 220.645422 -43.578125 
L 220.138758 -43.578125 
L 219.632095 -43.578125 
L 219.125431 -43.578125 
L 218.618768 -43.578125 
L 218.112105 -43.578125 
L 217.605441 -43.578125 
L 217.098778 -43.578125 
L 216.592114 -43.578125 
L 216.085451 -43.578125 
L 215.578788 -43.578125 
L 215.072124 -43.578125 
L 214.565461 -43.578125 
L 214.058797 -43.578125 
L 213.552134 -43.578125 
L 213.045471 -43.578125 
L 212.538807 -43.578125 
L 212.032144 -43.578125 
L 211.52548 -43.578125 
L 211.018817 -43.578125 
L 210.512153 -43.578125 
L 210.00549 -43.578125 
L 209.498827 -43.578125 
L 208.992163 -43.578125 
L 208.4855 -43.578125 
L 207.978836 -43.578125 
L 207.472173 -43.578125 
L 206.96551 -43.578125 
L 206.458846 -43.578125 
L 205.952183 -43.578125 
L 205.445519 -43.578125 
L 204.938856 -43.578125 
L 204.432193 -43.578125 
L 203.925529 -43.578125 
L 203.418866 -43.578125 
L 202.912202 -43.578125 
L 202.405539 -43.578125 
L 201.898876 -43.578125 
L 201.392212 -43.578125 
L 200.885549 -43.578125 
L 200.378885 -43.578125 
L 199.872222 -43.578125 
L 199.365559 -43.578125 
L 198.858895 -43.578125 
L 198.352232 -43.578125 
L 197.845568 -43.578125 
L 197.338905 -43.578125 
L 196.832241 -43.578125 
L 196.325578 -43.578125 
L 195.818915 -43.578125 
L 195.312251 -43.578125 
L 194.805588 -43.578125 
L 194.298924 -43.578125 
L 193.792261 -43.578125 
L 193.285598 -43.578125 
L 192.778934 -43.578125 
L 192.272271 -43.578125 
L 191.765607 -43.578125 
L 191.258944 -43.578125 
L 190.752281 -43.578125 
L 190.245617 -43.578125 
L 189.738954 -43.578125 
L 189.23229 -43.578125 
L 188.725627 -43.578125 
L 188.218964 -43.578125 
L 187.7123 -43.578125 
L 187.205637 -43.578125 
L 186.698973 -43.578125 
L 186.19231 -43.578125 
L 185.685647 -43.578125 
L 185.178983 -43.578125 
L 184.67232 -43.578125 
L 184.165656 -43.578125 
L 183.658993 -43.578125 
L 183.152329 -43.578125 
L 182.645666 -43.578125 
L 182.139003 -43.578125 
L 181.632339 -43.578125 
L 181.125676 -43.578125 
L 180.619012 -43.578125 
L 180.112349 -43.578125 
L 179.605686 -43.578125 
L 179.099022 -43.578125 
L 178.592359 -43.578125 
L 178.085695 -43.578125 
L 177.579032 -43.578125 
L 177.072369 -43.578125 
L 176.565705 -43.578125 
L 176.059042 -43.578125 
L 175.552378 -43.578125 
L 175.045715 -43.578125 
L 174.539052 -43.578125 
L 174.032388 -43.578125 
L 173.525725 -43.578125 
L 173.019061 -43.578125 
L 172.512398 -43.578125 
L 172.005735 -43.578125 
L 171.499071 -43.578125 
L 170.992408 -43.578125 
L 170.485744 -43.578125 
L 169.979081 -43.578125 
L 169.472417 -43.578125 
L 168.965754 -43.578125 
L 168.459091 -43.578125 
L 167.952427 -43.578125 
L 167.445764 -43.578125 
L 166.9391 -43.578125 
L 166.432437 -43.578125 
L 165.925774 -43.578125 
L 165.41911 -43.578125 
L 164.912447 -43.578125 
L 164.405783 -43.578125 
L 163.89912 -43.578125 
L 163.392457 -43.578125 
L 162.885793 -43.578125 
L 162.37913 -43.578125 
L 161.872466 -43.578125 
L 161.365803 -43.578125 
L 160.85914 -43.578125 
L 160.352476 -43.578125 
L 159.845813 -43.578125 
L 159.339149 -43.578125 
L 158.832486 -43.578125 
L 158.325823 -43.578125 
L 157.819159 -43.578125 
L 157.312496 -43.578125 
L 156.805832 -43.578125 
L 156.299169 -43.578125 
L 155.792505 -43.578125 
L 155.285842 -43.578125 
L 154.779179 -43.578125 
L 154.272515 -43.578125 
L 153.765852 -43.578125 
L 153.259188 -43.578125 
L 152.752525 -43.578125 
L 152.245862 -43.578125 
L 151.739198 -43.578125 
L 151.232535 -43.578125 
L 150.725871 -43.578125 
L 150.219208 -43.578125 
L 149.712545 -43.578125 
L 149.205881 -43.578125 
L 148.699218 -43.578125 
L 148.192554 -43.578125 
L 147.685891 -43.578125 
L 147.179228 -43.578125 
L 146.672564 -43.578125 
L 146.165901 -43.578125 
L 145.659237 -43.578125 
L 145.152574 -43.578125 
L 144.645911 -43.578125 
L 144.139247 -43.578125 
L 143.632584 -43.578125 
L 143.12592 -43.578125 
L 142.619257 -43.578125 
L 142.112593 -43.578125 
L 141.60593 -43.578125 
L 141.099267 -43.578125 
L 140.592603 -43.578125 
L 140.08594 -43.578125 
L 139.579276 -43.578125 
L 139.072613 -43.578125 
L 138.56595 -43.578125 
L 138.059286 -43.578125 
L 137.552623 -43.578125 
L 137.045959 -43.578125 
L 136.539296 -43.578125 
L 136.032633 -43.578125 
L 135.525969 -43.578125 
L 135.019306 -43.578125 
L 134.512642 -43.578125 
L 134.005979 -43.578125 
L 133.499316 -43.578125 
L 132.992652 -43.578125 
L 132.485989 -43.578125 
L 131.979325 -43.578125 
L 131.472662 -43.578125 
L 130.965999 -43.578125 
L 130.459335 -43.578125 
L 129.952672 -43.578125 
L 129.446008 -43.578125 
L 128.939345 -43.578125 
L 128.432681 -43.578125 
L 127.926018 -43.578125 
L 127.419355 -43.578125 
L 126.912691 -43.578125 
L 126.406028 -43.578125 
L 125.899364 -43.578125 
L 125.392701 -43.578125 
L 124.886038 -43.578125 
L 124.379374 -43.578125 
L 123.872711 -43.578125 
L 123.366047 -43.578125 
L 122.859384 -43.578125 
L 122.352721 -43.578125 
L 121.846057 -43.578125 
L 121.339394 -43.578125 
L 120.83273 -43.578125 
L 120.326067 -43.578125 
L 119.819404 -43.578125 
L 119.31274 -43.578125 
L 118.806077 -43.578125 
L 118.299413 -43.578125 
L 117.79275 -43.578125 
L 117.286087 -43.578125 
L 116.779423 -43.578125 
L 116.27276 -43.578125 
L 115.766096 -43.578125 
L 115.259433 -43.578125 
L 114.752769 -43.578125 
L 114.246106 -43.578125 
L 113.739443 -43.578125 
L 113.232779 -43.578125 
L 112.726116 -43.578125 
L 112.219452 -43.578125 
L 111.712789 -43.578125 
L 111.206126 -43.578125 
L 110.699462 -43.578125 
L 110.192799 -43.578125 
L 109.686135 -43.578125 
L 109.179472 -43.578125 
L 108.672809 -43.578125 
L 108.166145 -43.578125 
L 107.659482 -43.578125 
L 107.152818 -43.578125 
L 106.646155 -43.578125 
L 106.139492 -43.578125 
L 105.632828 -43.578125 
L 105.126165 -43.578125 
L 104.619501 -43.578125 
L 104.112838 -43.578125 
L 103.606175 -43.578125 
L 103.099511 -43.578125 
L 102.592848 -43.578125 
L 102.086184 -43.578125 
L 101.579521 -43.578125 
L 101.072857 -43.578125 
L 100.566194 -43.578125 
L 100.059531 -43.578125 
L 99.552867 -43.578125 
L 99.046204 -43.578125 
L 98.53954 -43.578125 
L 98.032877 -43.578125 
L 97.526214 -43.578125 
L 97.01955 -43.578125 
L 96.512887 -43.578125 
L 96.006223 -43.578125 
L 95.49956 -43.578125 
L 94.992897 -43.578125 
L 94.486233 -43.578125 
L 93.97957 -43.578125 
L 93.472906 -43.578125 
L 92.966243 -43.578125 
L 92.45958 -43.578125 
L 91.952916 -43.578125 
L 91.446253 -43.578125 
L 90.939589 -43.578125 
L 90.432926 -43.578125 
L 89.926263 -43.578125 
L 89.419599 -43.578125 
L 88.912936 -43.578125 
L 88.406272 -43.578125 
L 87.899609 -43.578125 
L 87.392945 -43.578125 
L 86.886282 -43.578125 
L 86.379619 -43.578125 
L 85.872955 -43.578125 
L 85.366292 -43.578125 
L 84.859628 -43.578125 
L 84.352965 -43.578125 
L 83.846302 -43.578125 
L 83.339638 -43.578125 
L 82.832975 -43.578125 
L 82.326311 -43.578125 
L 81.819648 -43.578125 
L 81.312985 -43.578125 
L 80.806321 -43.578125 
L 80.299658 -43.578125 
L 79.792994 -43.578125 
L 79.286331 -43.578125 
L 78.779668 -43.578125 
L 78.273004 -43.578125 
L 77.766341 -43.578125 
L 77.259677 -43.578125 
L 76.753014 -43.578125 
L 76.246351 -43.578125 
L 75.739687 -43.578125 
L 75.233024 -43.578125 
L 74.72636 -43.578125 
L 74.219697 -43.578125 
L 73.713033 -43.578125 
L 73.20637 -43.578125 
L 72.699707 -43.578125 
L 72.193043 -43.578125 
L 71.68638 -43.578125 
L 71.179716 -43.578125 
L 70.673053 -43.578125 
L 70.16639 -43.578125 
L 69.659726 -43.578125 
L 69.153063 -43.578125 
L 68.646399 -43.578125 
L 68.139736 -43.578125 
L 67.633073 -43.578125 
L 67.126409 -43.578125 
L 66.619746 -43.578125 
L 66.113082 -43.578125 
L 65.606419 -43.578125 
L 65.099756 -43.578125 
L 64.593092 -43.578125 
L 64.086429 -43.578125 
L 63.579765 -43.578125 
L 63.073102 -43.578125 
L 62.566439 -43.578125 
L 62.059775 -43.578125 
L 61.553112 -43.578125 
L 61.046448 -43.578125 
L 60.539785 -43.578125 
L 60.033121 -43.578125 
L 59.526458 -43.578125 
L 59.019795 -43.578125 
L 58.513131 -43.578125 
L 58.006468 -43.578125 
L 57.499804 -43.578125 
L 56.993141 -43.578125 
L 56.486478 -43.578125 
L 55.979814 -43.578125 
L 55.473151 -43.578125 
L 54.966487 -43.578125 
L 54.459824 -43.578125 
L 53.953161 -43.578125 
L 53.446497 -43.578125 
L 52.939834 -43.578125 
L 52.43317 -43.578125 
L 51.926507 -43.578125 
L 51.419844 -43.578125 
L 50.91318 -43.578125 
L 50.406517 -43.578125 
L 49.899853 -43.578125 
L 49.39319 -43.578125 
L 48.886527 -43.578125 
L 48.379863 -43.578125 
L 47.8732 -43.578125 
L 47.366536 -43.578125 
L 46.859873 -43.578125 
L 46.353209 -43.578125 
L 45.846546 -43.578125 
L 45.339883 -43.578125 
L 44.833219 -43.578125 
L 44.326556 -43.578125 
L 43.819892 -43.578125 
L 43.313229 -43.578125 
L 42.806566 -43.578125 
L 42.299902 -43.578125 
L 41.793239 -43.578125 
L 41.286575 -43.578125 
L 40.779912 -43.578125 
L 40.273249 -43.578125 
L 39.766585 -43.578125 
L 39.259922 -43.578125 
L 38.753258 -43.578125 
L 38.246595 -43.578125 
L 37.739932 -43.578125 
L 37.233268 -43.578125 
L 36.726605 -43.578125 
L 36.219941 -43.578125 
L 35.713278 -43.578125 
L 35.206615 -43.578125 
L 34.699951 -43.578125 
L 34.193288 -43.578125 
L 33.686624 -43.578125 
L 33.179961 -43.578125 
L 32.673297 -43.578125 
L 32.166634 -43.578125 
L 31.659971 -43.578125 
L 31.153307 -43.578125 
L 30.646644 -43.578125 
L 30.13998 -43.578125 
L 29.633317 -43.578125 
L 29.126654 -43.578125 
L 28.61999 -43.578125 
L 28.113327 -43.578125 
L 27.606663 -43.578125 
L 27.1 -43.578125 
z
"/>
    </defs>
    <g clip-path="url(#pebb129b974)">
     <use xlink:href="#mb17a7282b9" x="0" y="270.050625" style="fill: #38bdf8; fill-opacity: 0.32"/>
    </g>
   </g>
   <g id="matplotlib.axis_1">
    <g id="xtick_1">
     <g id="line2d_1">
      <path d="M 27.1 226.4725 
L 27.1 7.2 
" clip-path="url(#pebb129b974)" style="fill: none; stroke: #334155; stroke-opacity: 0.45; stroke-width: 0.8; stroke-linecap: square"/>
     </g>
     <g id="line2d_2">
      <defs>
       <path id="m8bd35faf40" d="M 0 0 
L 0 3.5 
" style="stroke: #94a3b8; stroke-width: 0.8"/>
      </defs>
      <g>
       <use xlink:href="#m8bd35faf40" x="27.1" y="226.4725" style="fill: #94a3b8; stroke: #94a3b8; stroke-width: 0.8"/>
      </g>
     </g>
     <g id="text_1">
      <text style="font-size: 10px; font-family: 'DejaVu Sans', 'Bitstream Vera Sans', 'Computer Modern Sans Serif', 'Lucida Grande', 'Verdana', 'Geneva', 'Lucid', 'Arial', 'Helvetica', 'Avant Garde', sans-serif; text-anchor: middle; fill: #94a3b8" x="27.1" y="241.070937" transform="rotate(-0 27.1 241.070937)">0.00</text>
     </g>
    </g>
    <g id="xtick_2">
     <g id="line2d_3">
      <path d="M 128.306016 226.4725 
L 128.306016 7.2 
" clip-path="url(#pebb129b974)" style="fill: none; stroke: #334155; stroke-opacity: 0.45; stroke-width: 0.8; stroke-linecap: square"/>
     </g>
     <g id="line2d_4">
      <g>
       <use xlink:href="#m8bd35faf40" x="128.306016" y="226.4725" style="fill: #94a3b8; stroke: #94a3b8; stroke-width: 0.8"/>
      </g>
     </g>
     <g id="text_2">
      <text style="font-size: 10px; font-family: 'DejaVu Sans', 'Bitstream Vera Sans', 'Computer Modern Sans Serif', 'Lucida Grande', 'Verdana', 'Geneva', 'Lucid', 'Arial', 'Helvetica', 'Avant Garde', sans-serif; text-anchor: middle; fill: #94a3b8" x="128.306016" y="241.070937" transform="rotate(-0 128.306016 241.070937)">0.25</text>
     </g>
    </g>
    <g id="xtick_3">
     <g id="line2d_5">
      <path d="M 229.512031 226.4725 
L 229.512031 7.2 
" clip-path="url(#pebb129b974)" style="fill: none; stroke: #334155; stroke-opacity: 0.45; stroke-width: 0.8; stroke-linecap: square"/>
     </g>
     <g id="line2d_6">
      <g>
       <use xlink:href="#m8bd35faf40" x="229.512031" y="226.4725" style="fill: #94a3b8; stroke: #94a3b8; stroke-width: 0.8"/>
      </g>
     </g>
     <g id="text_3">
      <text style="font-size: 10px; font-family: 'DejaVu Sans', 'Bitstream Vera Sans', 'Computer Modern Sans Serif', 'Lucida Grande', 'Verdana', 'Geneva', 'Lucid', 'Arial', 'Helvetica', 'Avant Garde', sans-serif; text-anchor: middle; fill: #94a3b8" x="229.512031" y="241.070937" transform="rotate(-0 229.512031 241.070937)">0.50</text>
     </g>
    </g>
    <g id="xtick_4">
     <g id="line2d_7">
      <path d="M 330.718047 226.4725 
L 330.718047 7.2 
" clip-path="url(#pebb129b974)" style="fill: none; stroke: #334155; stroke-opacity: 0.45; stroke-width: 0.8; stroke-linecap: square"/>
     </g>
     <g id="line2d_8">
      <g>
       <use xlink:href="#m8bd35faf40" x="330.718047" y="226.4725" style="fill: #94a3b8; stroke: #94a3b8; stroke-width: 0.8"/>
      </g>
     </g>
     <g id="text_4">
      <text style="font-size: 10px; font-family: 'DejaVu Sans', 'Bitstream Vera Sans', 'Computer Modern Sans Serif', 'Lucida Grande', 'Verdana', 'Geneva', 'Lucid', 'Arial', 'Helvetica', 'Avant Garde', sans-serif; text-anchor: middle; fill: #94a3b8" x="330.718047" y="241.070937" transform="rotate(-0 330.718047 241.070937)">0.75</text>
     </g>
    </g>
    <g id="xtick_5">
     <g id="line2d_9">
      <path d="M 431.924063 226.4725 
L 431.924063 7.2 
" clip-path="url(#pebb129b974)" style="fill: none; stroke: #334155; stroke-opacity: 0.45; stroke-width: 0.8; stroke-linecap: square"/>
     </g>
     <g id="line2d_10">
      <g>
       <use xlink:href="#m8bd35faf40" x="431.924063" y="226.4725" style="fill: #94a3b8; stroke: #94a3b8; stroke-width: 0.8"/>
      </g>
     </g>
     <g id="text_5">
      <text style="font-size: 10px; font-family: 'DejaVu Sans', 'Bitstream Vera Sans', 'Computer Modern Sans Serif', 'Lucida Grande', 'Verdana', 'Geneva', 'Lucid', 'Arial', 'Helvetica', 'Avant Garde', sans-serif; text-anchor: middle; fill: #94a3b8" x="431.924063" y="241.070937" transform="rotate(-0 431.924063 241.070937)">1.00</text>
     </g>
    </g>
    <g id="text_6">
     <!-- pluck position $x_p / L$ -->
     <g style="fill: #f8fafc" transform="translate(183.362031 259.750625)">
      <text>
       <tspan x="0" y="-0.40625" style="font-size: 10px; font-family: 'DejaVu Sans'; fill: #f8fafc">p</tspan>
       <tspan x="6.347656" y="-0.40625" style="font-size: 10px; font-family: 'DejaVu Sans'; fill: #f8fafc">l</tspan>
       <tspan x="9.125977" y="-0.40625" style="font-size: 10px; font-family: 'DejaVu Sans'; fill: #f8fafc">u</tspan>
       <tspan x="15.463867" y="-0.40625" style="font-size: 10px; font-family: 'DejaVu Sans'; fill: #f8fafc">c</tspan>
       <tspan x="20.961914" y="-0.40625" style="font-size: 10px; font-family: 'DejaVu Sans'; fill: #f8fafc">k</tspan>
       <tspan x="26.75293" y="-0.40625" style="font-size: 10px; font-family: 'DejaVu Sans'; fill: #f8fafc"> </tspan>
       <tspan x="29.931641" y="-0.40625" style="font-size: 10px; font-family: 'DejaVu Sans'; fill: #f8fafc">p</tspan>
       <tspan x="36.279297" y="-0.40625" style="font-size: 10px; font-family: 'DejaVu Sans'; fill: #f8fafc">o</tspan>
       <tspan x="42.397461" y="-0.40625" style="font-size: 10px; font-family: 'DejaVu Sans'; fill: #f8fafc">s</tspan>
       <tspan x="47.607422" y="-0.40625" style="font-size: 10px; font-family: 'DejaVu Sans'; fill: #f8fafc">i</tspan>
       <tspan x="50.385742" y="-0.40625" style="font-size: 10px; font-family: 'DejaVu Sans'; fill: #f8fafc">t</tspan>
       <tspan x="54.306641" y="-0.40625" style="font-size: 10px; font-family: 'DejaVu Sans'; fill: #f8fafc">i</tspan>
       <tspan x="57.084961" y="-0.40625" style="font-size: 10px; font-family: 'DejaVu Sans'; fill: #f8fafc">o</tspan>
       <tspan x="63.203125" y="-0.40625" style="font-size: 10px; font-family: 'DejaVu Sans'; fill: #f8fafc">n</tspan>
       <tspan x="69.541016" y="-0.40625" style="font-size: 10px; font-family: 'DejaVu Sans'; fill: #f8fafc"> </tspan>
       <tspan x="83.354492" y="-0.40625" style="font-size: 10px; font-family: 'DejaVu Sans'; fill: #f8fafc">/</tspan>
       <tspan x="72.719727" y="-0.40625" style="font-style: oblique; font-size: 10px; font-family: 'DejaVu Sans'; fill: #f8fafc">x</tspan>
       <tspan x="86.723633" y="-0.40625" style="font-style: oblique; font-size: 10px; font-family: 'DejaVu Sans'; fill: #f8fafc">L</tspan>
       <tspan x="78.637695" y="1.234375" style="font-style: oblique; font-size: 7px; font-family: 'DejaVu Sans'; fill: #f8fafc">p</tspan>
      </text>
     </g>
    </g>
   </g>
   <g id="matplotlib.axis_2">
    <g id="text_7">
     <!-- $p(x_p\mid y)$ -->
     <g style="fill: #f8fafc" transform="translate(15 136.63625) rotate(-90)">
      <text>
       <tspan x="0" y="-0.296875" style="font-style: oblique; font-size: 10px; font-family: 'DejaVu Sans'; fill: #f8fafc">p</tspan>
       <tspan x="10.249023" y="-0.296875" style="font-style: oblique; font-size: 10px; font-family: 'DejaVu Sans'; fill: #f8fafc">x</tspan>
       <tspan x="29.780273" y="-0.296875" style="font-style: oblique; font-size: 10px; font-family: 'DejaVu Sans'; fill: #f8fafc">y</tspan>
       <tspan x="6.347656" y="-0.296875" style="font-size: 10px; font-family: 'DejaVu Sans'; fill: #f8fafc">(</tspan>
       <tspan x="22.832031" y="-0.296875" style="font-size: 10px; font-family: 'DejaVu Sans'; fill: #f8fafc">∣</tspan>
       <tspan x="35.698242" y="-0.296875" style="font-size: 10px; font-family: 'DejaVu Sans'; fill: #f8fafc">)</tspan>
       <tspan x="16.166992" y="1.34375" style="font-style: oblique; font-size: 7px; font-family: 'DejaVu Sans'; fill: #f8fafc">p</tspan>
      </text>
     </g>
    </g>
   </g>
   <g id="line2d_11">
    <path d="M 27.1 226.458875 
L 40.273249 226.321297 
L 46.353209 226.064465 
L 50.91318 225.654416 
L 54.459824 225.107378 
L 57.499804 224.397556 
L 60.033121 223.572812 
L 62.059775 222.717766 
L 64.086429 221.650704 
L 66.113082 220.331483 
L 68.139736 218.715862 
L 70.16639 216.756028 
L 72.193043 214.401438 
L 74.219697 211.599994 
L 76.246351 208.299584 
L 78.273004 204.449986 
L 80.299658 200.00512 
L 82.326311 194.92559 
L 84.352965 189.18146 
L 86.379619 182.755137 
L 88.406272 175.644242 
L 90.939589 165.818515 
L 93.472906 155.024304 
L 96.512887 140.979947 
L 100.566194 120.972948 
L 107.659482 85.727813 
L 110.192799 74.257485 
L 112.219452 65.915256 
L 114.246106 58.513177 
L 115.766096 53.680571 
L 117.286087 49.535441 
L 118.806077 46.133288 
L 119.819404 44.301194 
L 120.83273 42.831255 
L 121.846057 41.732503 
L 122.859384 41.011718 
L 123.872711 40.673364 
L 124.886038 40.71954 
L 125.899364 41.149958 
L 126.912691 41.961951 
L 127.926018 43.150492 
L 128.939345 44.708254 
L 129.952672 46.62568 
L 131.472662 50.150071 
L 132.992652 54.409151 
L 134.512642 59.346047 
L 136.539296 66.87018 
L 138.56595 75.313154 
L 141.099267 86.877523 
L 144.645911 104.283188 
L 152.752525 144.540033 
L 155.792505 158.313687 
L 158.325823 168.832238 
L 160.85914 178.354486 
L 162.885793 185.212888 
L 164.912447 191.385647 
L 166.9391 196.881097 
L 168.965754 201.721736 
L 170.992408 205.941334 
L 173.019061 209.582068 
L 175.045715 212.691832 
L 177.072369 215.321789 
L 179.099022 217.524244 
L 181.125676 219.350874 
L 183.152329 220.851322 
L 185.178983 222.072148 
L 187.205637 223.056111 
L 189.738954 224.011246 
L 192.272271 224.721713 
L 195.312251 225.327958 
L 198.858895 225.789882 
L 203.418866 226.129594 
L 209.498827 226.330628 
L 218.618768 226.383577 
L 229.2587 226.234227 
L 236.858651 225.927242 
L 242.431948 225.504203 
L 246.991919 224.960957 
L 251.045226 224.268798 
L 254.59187 223.452021 
L 258.138514 222.388607 
L 261.178494 221.240803 
L 264.218475 219.837252 
L 266.751792 218.44568 
L 269.285109 216.829629 
L 271.818426 214.968583 
L 274.351743 212.843575 
L 276.88506 210.438053 
L 279.418377 207.738828 
L 281.951694 204.737066 
L 284.485011 201.429275 
L 287.524991 197.060431 
L 290.564972 192.274 
L 294.111616 186.210125 
L 298.164923 178.756633 
L 303.73822 167.932954 
L 310.831508 154.147909 
L 314.378152 147.71077 
L 317.418132 142.654369 
L 319.951449 138.867061 
L 321.978103 136.168156 
L 324.004757 133.799936 
L 326.03141 131.792405 
L 327.551401 130.539186 
L 329.071391 129.51269 
L 330.591381 128.72051 
L 332.111371 128.168542 
L 333.631361 127.860913 
L 335.151352 127.799932 
L 336.671342 127.986055 
L 338.191332 128.417885 
L 339.711322 129.092189 
L 341.231313 130.003935 
L 342.751303 131.146356 
L 344.777956 133.013639 
L 346.80461 135.251693 
L 348.831264 137.831979 
L 351.364581 141.48909 
L 353.897898 145.560578 
L 356.937878 150.887512 
L 360.991185 158.51663 
L 375.177761 185.777274 
L 378.724405 191.873982 
L 381.764385 196.692526 
L 384.804366 201.095674 
L 387.844346 205.063496 
L 390.377663 208.033532 
L 392.91098 210.701717 
L 395.444297 213.077386 
L 397.977614 215.174122 
L 400.510931 217.008771 
L 403.044248 218.600502 
L 406.084229 220.219028 
L 409.124209 221.554329 
L 412.16419 222.643087 
L 415.710833 223.648621 
L 419.257477 224.418341 
L 423.310785 225.068326 
L 427.870755 225.576507 
L 431.924063 225.882783 
L 431.924063 225.882783 
" clip-path="url(#pebb129b974)" style="fill: none; stroke: #7dd3fc; stroke-width: 3; stroke-linecap: square"/>
   </g>
   <g id="line2d_12">
    <path d="M 124.257775 226.4725 
L 124.257775 7.2 
" clip-path="url(#pebb129b974)" style="fill: none; stroke-dasharray: 6.4,6.4; stroke-dashoffset: 0; stroke: #fbbf24; stroke-opacity: 0.9; stroke-width: 1.6"/>
   </g>
   <g id="line2d_13">
    <path d="M 334.766288 226.4725 
L 334.766288 7.2 
" clip-path="url(#pebb129b974)" style="fill: none; stroke-dasharray: 6.4,6.4; stroke-dashoffset: 0; stroke: #fbbf24; stroke-opacity: 0.9; stroke-width: 1.6"/>
   </g>
   <g id="line2d_14">
    <path d="M 212.606384 226.4725 
L 212.606384 7.2 
" clip-path="url(#pebb129b974)" style="fill: none; stroke-dasharray: 1.4,2.31; stroke-dashoffset: 0; stroke: #94a3b8; stroke-opacity: 0.85; stroke-width: 1.4"/>
   </g>
   <g id="patch_3">
    <path d="M 27.1 226.4725 
L 27.1 7.2 
" style="fill: none; opacity: 0.7; stroke: #94a3b8; stroke-width: 0.8; stroke-linejoin: miter; stroke-linecap: square"/>
   </g>
   <g id="patch_4">
    <path d="M 27.1 226.4725 
L 431.924063 226.4725 
" style="fill: none; opacity: 0.7; stroke: #94a3b8; stroke-width: 0.8; stroke-linejoin: miter; stroke-linecap: square"/>
   </g>
   <g id="text_8">
    <text style="font-size: 11px; font-family: 'DejaVu Sans', 'Bitstream Vera Sans', 'Computer Modern Sans Serif', 'Lucida Grande', 'Verdana', 'Geneva', 'Lucid', 'Arial', 'Helvetica', 'Avant Garde', sans-serif; text-anchor: middle; fill: #fbbf24" x="124.257775" y="25.353001" transform="rotate(-0 124.257775 25.353001)">plausible</text>
   </g>
   <g id="text_9">
    <text style="font-size: 11px; font-family: 'DejaVu Sans', 'Bitstream Vera Sans', 'Computer Modern Sans Serif', 'Lucida Grande', 'Verdana', 'Geneva', 'Lucid', 'Arial', 'Helvetica', 'Avant Garde', sans-serif; text-anchor: middle; fill: #fbbf24" x="334.766288" y="25.353001" transform="rotate(-0 334.766288 25.353001)">plausible</text>
   </g>
   <g id="text_10">
    <text style="font-size: 10px; font-family: 'DejaVu Sans', 'Bitstream Vera Sans', 'Computer Modern Sans Serif', 'Lucida Grande', 'Verdana', 'Geneva', 'Lucid', 'Arial', 'Helvetica', 'Avant Garde', sans-serif; text-anchor: middle; fill: #94a3b8" x="212.606384" y="187.227982" transform="rotate(-0 212.606384 187.227982)">mean</text>
   </g>
  </g>
 </g>
 <defs>
  <clipPath id="pebb129b974">
   <rect x="27.1" y="7.2" width="404.824063" height="219.2725"/>
  </clipPath>
 </defs>
</svg>
