<?xml version="1.0" encoding="UTF-8" standalone="no"?>
<!-- Created with Inkscape (http://www.inkscape.org/) -->

<svg
   version="1.1"
   id="svg1"
   width="394.55997"
   height="361.28"
   viewBox="0 0 394.55997 361.28"
   sodipodi:docname="diagrams-data_vs_physics.pdf"
   xmlns:inkscape="http://www.inkscape.org/namespaces/inkscape"
   xmlns:sodipodi="http://sodipodi.sourceforge.net/DTD/sodipodi-0.dtd"
   xmlns="http://www.w3.org/2000/svg"
   xmlns:svg="http://www.w3.org/2000/svg">
  <defs
     id="defs1">
    <clipPath
       clipPathUnits="userSpaceOnUse"
       id="clipPath2">
      <path
         d="M 0,0 H 394.56248 V 361.59998 H 0 Z"
         clip-rule="evenodd"
         id="path2" />
    </clipPath>
    <radialGradient
       fx="0.5"
       fy="0.5"
       cx="0.5"
       cy="0.5"
       r="0.5"
       gradientUnits="userSpaceOnUse"
       gradientTransform="matrix(150,0,0,115,119.99999,170)"
       spreadMethod="pad"
       id="radialGradient6">
      <stop
         style="stop-opacity:1;stop-color:#e1d5e7"
         offset="0"
         id="stop5" />
      <stop
         style="stop-opacity:1;stop-color:#e7e4e9"
         offset="1"
         id="stop6" />
    </radialGradient>
  </defs>
  <sodipodi:namedview
     id="namedview1"
     pagecolor="#ffffff"
     bordercolor="#000000"
     borderopacity="0.25"
     inkscape:showpageshadow="2"
     inkscape:pageopacity="0.0"
     inkscape:pagecheckerboard="0"
     inkscape:deskcolor="#d1d1d1">
    <inkscape:page
       x="0"
       y="0"
       inkscape:label="1"
       id="page1"
       width="394.55997"
       height="361.28"
       margin="0"
       bleed="0" />
  </sodipodi:namedview>
  <g
     id="g1"
     inkscape:groupmode="layer"
     inkscape:label="1">
    <path
       id="path1"
       d="M 0,0 H 395 V 362 H 0 Z"
       style="fill:#ffffff;fill-opacity:1;fill-rule:nonzero;stroke:none"
       clip-path="url(#clipPath2)" />
    <path
       id="path3"
       d="m 248,90 c 0,1.801323 -0.1284,3.598305 -0.38522,5.390945 -0.25681,1.792641 -0.6408,3.572319 -1.15197,5.339025 -0.51115,1.7667 -1.147,3.51194 -1.90757,5.23568 -0.76058,1.72376 -1.64222,3.41773 -2.6449,5.08193 -1.00266,1.6642 -2.12154,3.29061 -3.35664,4.87922 -1.23511,1.58863 -2.58049,3.13181 -4.03617,4.62955 -1.45564,1.49774 -3.01454,2.94283 -4.67669,4.33528 -1.66219,1.39244 -3.41962,2.72552 -5.27231,3.99924 -1.85269,1.27373 -3.79172,2.48195 -5.81707,3.62469 -2.02537,1.14275 -4.12731,2.2145 -6.30586,3.21524 -2.17854,1.00077 -4.42317,1.92572 -6.73388,2.77486 -2.31072,0.84914 -4.6764,1.61836 -7.09707,2.30769 -2.42063,0.68935 -4.88461,1.29546 -7.39189,1.81836 -2.50728,0.52291 -5.04579,0.96006 -7.61555,1.31147 -2.56975,0.35142 -5.15837,0.61543 -7.76584,0.79199 C 173.2339,144.91173 170.6201,145 168,145 c -2.62009,0 -5.23387,-0.0883 -7.84135,-0.26483 -2.6075,-0.17656 -5.19613,-0.44057 -7.76587,-0.79199 -2.56975,-0.35141 -5.10827,-0.78856 -7.61554,-1.31147 -2.50728,-0.5229 -4.97126,-1.12901 -7.39192,-1.81836 -2.42066,-0.68933 -4.78635,-1.45855 -7.09707,-2.30769 -2.31072,-0.84914 -4.55535,-1.77409 -6.73388,-2.77486 -2.17853,-1.00074 -4.28048,-2.07249 -6.30583,-3.21524 -2.02537,-1.14274 -3.96439,-2.35096 -5.81708,-3.62469 -1.85269,-1.27372 -3.61012,-2.6068 -5.2723,-3.99924 -1.66217,-1.39245 -3.22109,-2.83754 -4.67674,-4.33528 -1.45565,-1.49774 -2.801024,-3.04092 -4.036131,-4.62954 -1.235107,-1.58861 -2.353996,-3.21503 -3.356667,-4.87923 -1.002662,-1.6642 -1.884284,-3.35817 -2.644859,-5.08193 -0.760567,-1.72374 -1.396431,-3.46898 -1.907593,-5.23569 C 89.026016,98.963257 88.642036,97.183586 88.385223,95.390945 88.12841,93.598305 88,91.801323 88,90 c 0,-1.801315 0.12841,-3.598297 0.385223,-5.390945 0.256813,-1.792641 0.640793,-3.572319 1.151947,-5.339035 0.511162,-1.766701 1.147026,-3.511933 1.907601,-5.23568 0.760567,-1.723755 1.642189,-3.417732 2.644851,-5.08194 1.002671,-1.6642 2.12156,-3.290611 3.356667,-4.879226 1.235107,-1.58862 2.580481,-3.131802 4.036131,-4.629544 1.45565,-1.497738 3.01457,-2.942825 4.67674,-4.335262 1.66218,-1.392437 3.41961,-2.725521 5.2723,-3.999245 1.85269,-1.273723 3.79171,-2.481956 5.81708,-3.624702 2.02535,-1.142742 4.1273,-2.214497 6.30583,-3.215256 2.17853,-1.000755 4.42316,-1.925701 6.73388,-2.774834 2.31072,-0.849136 4.67641,-1.618374 7.09707,-2.307708 2.42066,-0.689331 4.88464,-1.295445 7.39192,-1.818341 2.50727,-0.522895 5.04579,-0.960056 7.61554,-1.311477 2.56974,-0.351414 5.15837,-0.615403 7.76587,-0.791962 C 162.76613,35.088284 165.37991,35.000004 168,35 c 2.6201,4e-6 5.2339,0.08828 7.84137,0.264843 2.60747,0.176559 5.19609,0.440548 7.76584,0.791962 2.56976,0.351421 5.10827,0.788582 7.61555,1.311481 2.50728,0.522892 4.97126,1.129006 7.39189,1.818337 2.42067,0.689334 4.78635,1.458572 7.09707,2.307708 2.31071,0.849133 4.55534,1.774079 6.73387,2.774834 2.17854,1.000759 4.2805,2.072514 6.30587,3.215256 2.02535,1.142746 3.96438,2.350979 5.81707,3.624702 1.85269,1.273724 3.61012,2.606808 5.27229,3.999245 1.66217,1.392437 3.22107,2.837524 4.67671,4.335262 1.45566,1.497742 2.80104,3.040924 4.03617,4.629544 1.23509,1.588615 2.35397,3.215026 3.35662,4.879226 1.00269,1.664208 1.88433,3.358185 2.64492,5.08194 0.76057,1.723747 1.39642,3.468979 1.90757,5.23568 0.51117,1.766716 0.89516,3.546394 1.15197,5.339035 C 247.8716,86.401703 248,88.198685 248,90 Z"
       style="fill:#d5e8d4;fill-opacity:0.5;fill-rule:nonzero;stroke:none"
       transform="matrix(0.67878186,0.67878186,-0.67878186,0.67878186,96.331314,-83.010201)" />
    <path
       id="path4"
       d="m 236.37,145.03 c 1e-5,1.25126 -0.15622,2.49953 -0.46871,3.74475 -0.3125,1.24524 -0.77972,2.48146 -1.40169,3.70868 -0.62193,1.22722 -1.39563,2.43953 -2.32106,3.6369 -0.92543,1.19739 -1.99814,2.37408 -3.21815,3.53009 -1.21999,1.15602 -2.58139,2.28578 -4.08422,3.38928 -1.5028,1.10352 -3.1398,2.17546 -4.91096,3.21585 -1.77116,1.04039 -3.66795,2.04422 -5.6904,3.01146 -2.02244,0.96724 -4.16081,1.89324 -6.41507,2.778 -2.25426,0.88478 -4.61355,1.72406 -7.07791,2.51786 -2.46437,0.79377 -5.02193,1.53825 -7.67265,2.23343 -2.65071,0.69516 -5.38187,1.33766 -8.19344,1.9275 -2.81155,0.58984 -5.69,1.12418 -8.63534,1.603 -2.94533,0.47883 -5.94336,0.89987 -8.9941,1.26309 -3.05074,0.36322 -6.13947,0.66688 -9.26622,0.911 -3.12675,0.24412 -6.27644,0.42752 -9.4491,0.55015 -3.17265,0.12264 -6.35298,0.18396 -9.54098,0.18396 -3.18801,0 -6.36833,-0.0613 -9.54099,-0.18394 -3.17265,-0.12265 -6.32235,-0.30605 -9.44911,-0.55017 -3.12674,-0.24412 -6.21549,-0.54778 -9.26622,-0.911 -3.05073,-0.36322 -6.04876,-0.78426 -8.9941,-1.26309 -2.945329,-0.47882 -5.823777,-1.01316 -8.635346,-1.603 -2.81157,-0.58984 -5.542717,-1.23234 -8.193451,-1.9275 -2.650719,-0.69518 -5.20826,-1.43966 -7.672623,-2.23343 -2.464363,-0.7938 -4.823677,-1.63308 -7.077942,-2.51786 -2.254257,-0.88476 -4.392608,-1.81076 -6.415062,-2.778 -2.022449,-0.96724 -3.919258,-1.97107 -5.690418,-3.01146 -1.77116,-1.04039 -3.408146,-2.11233 -4.910957,-3.21585 -1.502816,-1.1035 -2.864224,-2.23326 -4.084221,-3.38928 -1.219994,-1.15601 -2.292706,-2.3327 -3.218132,-3.53009 -0.925427,-1.19737 -1.699116,-2.40968 -2.321068,-3.6369 -0.621944,-1.22722 -1.089157,-2.46344 -1.401638,-3.70868 -0.312477,-1.24522 -0.468716,-2.49349 -0.46872,-3.74475 4e-6,-1.25127 0.156243,-2.49951 0.46872,-3.74474 0.312481,-1.24524 0.779694,-2.48147 1.401638,-3.70871 0.621952,-1.22722 1.395641,-2.43951 2.321068,-3.6369 0.925426,-1.19737 1.998138,-2.37407 3.218132,-3.53009 1.219997,-1.15601 2.581405,-2.28577 4.084221,-3.38929 1.502815,-1.10351 3.139801,-2.17545 4.910961,-3.21584 1.77116,-1.04038 3.667969,-2.0442 5.690418,-3.01143 2.02245,-0.96724 4.160801,-1.89325 6.415058,-2.77802 2.254265,-0.88478 4.613579,-1.72406 7.077942,-2.51786 2.464363,-0.79379 5.021904,-1.53826 7.672623,-2.23343 2.650734,-0.69516 5.381881,-1.33766 8.193451,-1.92751 2.811569,-0.58984 5.690017,-1.12418 8.635346,-1.60302 2.94534,-0.47883 5.94337,-0.89986 8.9941,-1.26308 3.05073,-0.36321 6.13948,-0.66688 9.26622,-0.911 3.12676,-0.2441 6.27646,-0.42746 9.44911,-0.55011 3.17266,-0.12264 6.35298,-0.18397 9.54099,-0.18397 3.188,0 6.36833,0.0613 9.54098,0.18397 3.17266,0.12265 6.32235,0.30601 9.4491,0.55011 3.12675,0.24412 6.21548,0.54779 9.26622,0.911 3.05074,0.36323 6.04875,0.78426 8.99408,1.26309 2.94534,0.47884 5.82379,1.01318 8.63536,1.60302 2.81157,0.58984 5.54273,1.23234 8.19344,1.92751 2.65072,0.69516 5.20828,1.43965 7.67265,2.23344 2.46436,0.79379 4.82365,1.63307 7.07791,2.51784 2.25426,0.88478 4.39263,1.81079 6.41507,2.77802 2.02243,0.96723 3.91922,1.97104 5.69038,3.01142 1.77117,1.04039 3.40816,2.11234 4.91098,3.21585 1.50283,1.10352 2.86423,2.23328 4.08422,3.38929 1.22001,1.15602 2.29274,2.33272 3.21817,3.53011 0.92543,1.19738 1.69911,2.40968 2.32104,3.6369 0.62197,1.22722 1.08919,2.46345 1.40168,3.70869 0.31248,1.24523 0.46873,2.49347 0.46872,3.74474 z"
       style="fill:#ffe6cc;fill-opacity:0.5;fill-rule:nonzero;stroke:none"
       transform="matrix(0.78633885,0.55060036,-0.55060036,0.78633885,91.995651,-45.651541)" />
    <path
       id="path5"
       d="m 270,227.5 c 0,1.88319 -0.12039,3.76186 -0.36115,5.63599 -0.24075,1.87413 -0.60076,3.73468 -1.07998,5.58168 -0.47922,1.84703 -1.07535,3.67158 -1.78839,5.47368 -0.71302,1.8021 -1.53952,3.57308 -2.47956,5.31292 -0.94,1.73986 -1.98895,3.4402 -3.14685,5.10105 -1.15792,1.66082 -2.41925,3.27414 -3.7839,4.83996 -1.36466,1.56583 -2.82613,3.0766 -4.38442,4.53235 -1.55827,1.45572 -3.20587,2.8494 -4.94276,4.181 -1.73689,1.33163 -3.55473,2.59479 -5.45351,3.78946 -1.89879,1.1947 -3.86937,2.31515 -5.91174,3.36139 -2.04236,1.04626 -4.1467,2.01327 -6.313,2.901 -2.16631,0.88773 -4.38414,1.69192 -6.65351,2.41257 -2.26936,0.72067 -4.57931,1.35434 -6.92988,1.901 -2.35057,0.54669 -4.73044,1.00372 -7.13959,1.37109 -2.40913,0.36743 -4.83595,0.64343 -7.28047,0.82797 C 199.90678,284.90771 197.45634,285 195,285 c -2.45634,0 -4.90677,-0.0923 -7.35129,-0.27689 -2.4445,-0.18454 -4.87134,-0.46054 -7.2805,-0.82797 -2.40913,-0.36737 -4.789,-0.8244 -7.13957,-1.37109 -2.35057,-0.54666 -4.66054,-1.18033 -6.92992,-1.901 -2.26936,-0.72065 -4.48718,-1.52484 -6.65347,-2.41257 -2.16631,-0.88773 -4.27066,-1.85474 -6.31304,-2.901 -2.04237,-1.04624 -4.01294,-2.16669 -5.91171,-3.36139 -1.89879,-1.19467 -3.71663,-2.45783 -5.45352,-3.78946 -1.73689,-1.3316 -3.38449,-2.72528 -4.94278,-4.181 -1.55829,-1.45575 -3.01976,-2.96652 -4.38443,-4.53235 -1.36467,-1.56582 -2.62596,-3.17914 -3.78387,-4.83998 -1.15792,-1.66083 -2.20687,-3.36117 -3.14688,-5.10103 -0.93999,-1.73984 -1.76651,-3.51082 -2.47955,-5.31292 -0.71304,-1.8021 -1.30917,-3.62665 -1.78838,-5.47368 -0.4792,-1.847 -0.83918,-3.70755 -1.07994,-5.58168 C 120.12038,231.26186 120,229.38319 120,227.5 c 0,-1.88319 0.12038,-3.76186 0.36115,-5.63599 0.24076,-1.87413 0.60073,-3.73469 1.07994,-5.58172 0.47921,-1.847 1.07534,-3.67156 1.78837,-5.47367 0.71305,-1.8021 1.53957,-3.57309 2.47956,-5.31294 0.94001,-1.73984 1.98896,-3.44017 3.14688,-5.10101 1.15791,-1.66083 2.4192,-3.27416 3.78387,-4.83998 1.36467,-1.56581 2.82614,-3.07657 4.38443,-4.53229 1.55829,-1.45573 3.20589,-2.84943 4.94278,-4.18105 1.73689,-1.33161 3.55473,-2.59477 5.45352,-3.78945 1.89877,-1.19469 3.86934,-2.31518 5.91171,-3.36142 2.04238,-1.04624 4.14673,-2.01322 6.31304,-2.90096 2.16629,-0.88774 4.38411,-1.69194 6.65347,-2.41261 2.26938,-0.72066 4.57936,-1.35431 6.92993,-1.90097 2.35057,-0.54666 4.73044,-1.0037 7.13958,-1.3711 2.40914,-0.36738 4.83598,-0.64337 7.28048,-0.82795 C 190.09323,170.0923 192.54366,170 195,170 c 2.45634,0 4.90678,0.0923 7.35129,0.27689 2.44452,0.18458 4.87134,0.46057 7.28047,0.82795 2.40915,0.3674 4.78902,0.82444 7.13959,1.37108 2.35057,0.54668 4.66052,1.18033 6.92988,1.90099 2.26937,0.72067 4.4872,1.52487 6.65351,2.41261 2.1663,0.88774 4.27063,1.85472 6.31298,2.90097 2.04239,1.04625 4.01297,2.16672 5.91176,3.36141 1.89878,1.19468 3.71662,2.45784 5.45351,3.78945 1.73689,1.33162 3.38449,2.72532 4.94278,4.18105 1.55827,1.45572 3.01974,2.96648 4.3844,4.53229 1.36465,1.56582 2.62594,3.17915 3.78387,4.83998 1.15793,1.66084 2.20688,3.36117 3.14688,5.10101 0.94004,1.73985 1.76654,3.51084 2.47956,5.31294 0.71304,1.80211 1.30917,3.62667 1.78839,5.47367 0.47922,1.84703 0.83923,3.70759 1.07998,5.58172 C 269.87961,223.73814 270,225.61681 270,227.5 Z"
       style="fill:url(#radialGradient6);fill-opacity:0.502;fill-rule:nonzero;stroke:none"
       transform="matrix(0.95994252,0,0,0.95994252,-11.994035,5.7206961)" />
    <path
       id="path6"
       d="m 404,290 c 3e-5,1.63754 -0.10431,3.27118 -0.31299,4.90085 -0.20865,1.62967 -0.52066,3.24756 -0.936,4.85364 -0.41532,1.60611 -0.93195,3.19268 -1.5499,4.75973 -0.61795,1.56705 -1.33429,3.107 -2.14899,4.6199 -0.81466,1.51291 -1.72375,2.99149 -2.72729,4.43567 -1.00351,1.44422 -2.09665,2.84711 -3.27936,4.20868 -1.18271,1.36161 -2.44931,2.67533 -3.7998,3.9412 -1.3505,1.26583 -2.77842,2.47772 -4.28376,3.63565 -1.50528,1.15792 -3.08075,2.25634 -4.72634,3.29519 -1.6456,1.03885 -3.35346,2.01319 -5.12354,2.92295 -1.77005,0.90979 -3.59378,1.75067 -5.47125,2.52261 -1.87744,0.77194 -3.79956,1.47122 -5.76639,2.09787 -1.96677,0.62668 -3.96872,1.1777 -6.00586,1.65308 -2.03717,0.47537 -4.09973,0.87277 -6.18768,1.19223 -2.08792,0.31948 -4.19116,0.55947 -6.30976,0.72 C 343.25253,339.91974 341.12885,340 339,340 c -2.12881,0 -4.25253,-0.0803 -6.37112,-0.24075 -2.1186,-0.16053 -4.22184,-0.40052 -6.30976,-0.72 -2.08792,-0.31946 -4.15045,-0.71686 -6.18765,-1.19223 -2.03714,-0.47538 -4.03912,-1.0264 -6.00595,-1.65308 -1.96677,-0.62665 -3.88889,-1.32593 -5.76633,-2.09787 -1.87747,-0.77194 -3.70123,-1.61282 -5.47128,-2.52261 -1.77005,-0.90976 -3.47791,-1.8841 -5.12351,-2.92295 -1.6456,-1.03885 -3.22103,-2.13727 -4.72638,-3.29519 -1.50531,-1.15793 -2.93322,-2.36982 -4.28372,-3.63568 -1.35049,-1.26584 -2.61712,-2.57956 -3.79986,-3.94117 -1.18271,-1.36157 -2.27582,-2.76446 -3.27936,-4.20865 -1.00351,-1.44421 -1.91263,-2.92279 -2.7273,-4.4357 -0.81466,-1.5129 -1.531,-3.05285 -2.14895,-4.6199 -0.61798,-1.56705 -1.13461,-3.15362 -1.54993,-4.75973 -0.41531,-1.60608 -0.72726,-3.22397 -0.93591,-4.85364 C 274.10431,293.27118 273.99997,291.63754 274,290 c -3e-5,-1.63754 0.10431,-3.27115 0.31299,-4.90085 0.20865,-1.62967 0.5206,-3.24759 0.93591,-4.8537 0.41532,-1.60611 0.93195,-3.19265 1.54993,-4.75967 0.61795,-1.56708 1.33429,-3.10706 2.14895,-4.61997 0.81467,-1.5129 1.72379,-2.99145 2.72733,-4.43566 1.00351,-1.44419 2.09662,-2.84708 3.27933,-4.20868 1.18274,-1.36158 2.44937,-2.6753 3.79986,-3.94114 1.3505,-1.26586 2.77841,-2.47776 4.28372,-3.63569 1.50535,-1.15792 3.08078,-2.2563 4.72638,-3.29517 1.6456,-1.03886 3.35343,-2.01318 5.12348,-2.92299 1.77005,-0.90977 3.59381,-1.75062 5.47128,-2.52256 1.87747,-0.77193 3.79959,-1.47124 5.76636,-2.09792 1.96683,-0.62666 3.96881,-1.17766 6.00595,-1.65302 2.0372,-0.47535 4.09973,-0.87278 6.18765,-1.19226 2.08792,-0.31945 4.19116,-0.55943 6.30976,-0.71994 2.11859,-0.1605 4.24231,-0.24076 6.37112,-0.24078 2.12885,2e-5 4.25253,0.0803 6.37109,0.24078 2.1186,0.16051 4.22184,0.40049 6.30976,0.71996 2.08795,0.31947 4.15051,0.71689 6.18765,1.19224 2.03714,0.47536 4.03912,1.02636 6.00589,1.65302 1.96683,0.62668 3.88895,1.32599 5.76639,2.09792 1.87744,0.77194 3.70117,1.6128 5.47122,2.52258 1.77008,0.90979 3.47794,1.88412 5.12357,2.92299 1.64559,1.03885 3.22106,2.13723 4.72634,3.29515 1.50534,1.15793 2.93326,2.36983 4.28376,3.63569 1.35049,1.26584 2.61709,2.57956 3.7998,3.94114 1.18271,1.3616 2.27585,2.76449 3.27939,4.20871 1.00351,1.44418 1.9126,2.92273 2.72726,4.43563 0.8147,1.51291 1.53101,3.05289 2.14896,4.61997 0.61798,1.56702 1.13461,3.15356 1.54993,4.75967 0.41534,1.60611 0.72735,3.22403 0.936,4.8537 0.20868,1.6297 0.31302,3.26331 0.31299,4.90085 z"
       style="fill:#dae8fc;fill-opacity:0.5;fill-rule:nonzero;stroke:none"
       transform="matrix(0.95994252,0,0,0.95994252,-11.994035,5.7206961)" />
    <path
       id="path7"
       d="M 54,340 H 407.63"
       style="fill:none;stroke:#000000;stroke-width:1;stroke-linecap:butt;stroke-linejoin:miter;stroke-miterlimit:10;stroke-dasharray:none;stroke-opacity:1"
       transform="matrix(0.95994252,0,0,0.95994252,-11.994035,5.7206961)" />
    <path
       id="path8"
       d="m 412.88,340 -7,3.5 1.75,-3.5 -1.75,-3.5 z"
       style="fill:#000000;fill-opacity:1;fill-rule:nonzero;stroke:#000000;stroke-width:1;stroke-linecap:butt;stroke-linejoin:miter;stroke-miterlimit:10;stroke-dasharray:none;stroke-opacity:1"
       transform="matrix(0.95994252,0,0,0.95994252,-11.994035,5.7206961)" />
    <path
       id="path9"
       d="M 54,340 V 66.370003"
       style="fill:none;stroke:#000000;stroke-width:1;stroke-linecap:butt;stroke-linejoin:miter;stroke-miterlimit:10;stroke-dasharray:none;stroke-opacity:1"
       transform="matrix(0.95994252,0,0,0.95994252,-11.994035,5.7206961)" />
    <path
       id="path10"
       d="m 54,61.119999 3.5,7.000004 -3.5,-1.75 -3.5,1.75 z"
       style="fill:#000000;fill-opacity:1;fill-rule:nonzero;stroke:#000000;stroke-width:1;stroke-linecap:butt;stroke-linejoin:miter;stroke-miterlimit:10;stroke-dasharray:none;stroke-opacity:1"
       transform="matrix(0.95994252,0,0,0.95994252,-11.994035,5.7206961)" />
    <text
       id="text10"
       xml:space="preserve"
       transform="matrix(0.95994252,0,0,0.95994252,321.90098,282.66411)"><tspan
         id="tspan10"
         style="font-variant:normal;font-weight:normal;font-size:12px;font-family:Times;writing-mode:lr-tb;fill:#000000;fill-opacity:1;fill-rule:nonzero;stroke:none"
         x="0"
         y="0">FDTD</tspan></text>
    <text
       id="text11"
       xml:space="preserve"
       transform="matrix(0.95994252,0,0,0.95994252,286.69808,301.86296)"><tspan
         id="tspan11"
         style="font-variant:normal;font-weight:normal;font-size:12px;font-family:Times;writing-mode:lr-tb;fill:#000000;fill-opacity:1;fill-rule:nonzero;stroke:none"
         x="0"
         y="0">FEM</tspan></text>
    <text
       id="text12"
       xml:space="preserve"
       transform="matrix(0.95994252,0,0,0.95994252,325.09578,311.46239)"><tspan
         id="tspan12"
         style="font-variant:normal;font-weight:normal;font-size:12px;font-family:Times;writing-mode:lr-tb;fill:#000000;fill-opacity:1;fill-rule:nonzero;stroke:none"
         x="0"
         y="0">FTM</tspan></text>
    <text
       id="text13"
       xml:space="preserve"
       transform="matrix(0.95994252,0,0,0.95994252,283.81825,273.06469)"><tspan
         id="tspan13"
         style="font-variant:normal;font-weight:normal;font-size:12px;font-family:Times;writing-mode:lr-tb;fill:#000000;fill-opacity:1;fill-rule:nonzero;stroke:none"
         x="0"
         y="0">DWM</tspan></text>
    <text
       id="text14"
       xml:space="preserve"
       transform="matrix(0.95994252,0,0,0.95994252,182.37933,253.86584)"><tspan
         id="tspan14"
         style="font-variant:normal;font-weight:normal;font-size:12px;font-family:Times;writing-mode:lr-tb;fill:#000000;fill-opacity:1;fill-rule:nonzero;stroke:none"
         x="0"
         y="0">PINN</tspan></text>
    <text
       id="text15"
       xml:space="preserve"
       transform="matrix(0.95994252,0,0,0.95994252,201.59317,236.58687)"><tspan
         id="tspan15"
         style="font-variant:normal;font-weight:normal;font-size:12px;font-family:Times;writing-mode:lr-tb;fill:#000000;fill-opacity:1;fill-rule:nonzero;stroke:none"
         x="0"
         y="0">HNN</tspan></text>
    <text
       id="text16"
       xml:space="preserve"
       transform="matrix(0.95994252,0,0,0.95994252,55.831903,104.1148)"><tspan
         id="tspan16"
         style="font-variant:normal;font-weight:normal;font-size:12px;font-family:Times;writing-mode:lr-tb;fill:#000000;fill-opacity:1;fill-rule:nonzero;stroke:none"
         x="0"
         dx="0 -0.95507812"
         y="0">Wavenet</tspan></text>
    <text
       id="text17"
       xml:space="preserve"
       transform="matrix(0.95994252,0,0,0.95994252,104.324,156.91164)"><tspan
         id="tspan17"
         style="font-variant:normal;font-weight:normal;font-size:12px;font-family:Times;writing-mode:lr-tb;fill:#000000;fill-opacity:1;fill-rule:nonzero;stroke:none"
         x="0"
         y="0">DeepKoopman</tspan></text>
    <text
       id="text18"
       xml:space="preserve"
       transform="matrix(0.95994252,0,0,0.95994252,306.70688,349.86009)"><tspan
         id="tspan18"
         style="font-variant:normal;font-weight:normal;font-size:12px;font-family:Times;writing-mode:lr-tb;fill:#000000;fill-opacity:1;fill-rule:nonzero;stroke:none"
         x="0"
         y="0">Physics prior</tspan></text>
    <text
       id="text19"
       xml:space="preserve"
       transform="matrix(0,-0.95994252,0.95994252,0,23.043873,169.85587)"><tspan
         id="tspan19"
         style="font-variant:normal;font-weight:normal;font-size:12px;font-family:Times;writing-mode:lr-tb;fill:#000000;fill-opacity:1;fill-rule:nonzero;stroke:none"
         x="0"
         y="0">Data dependency</tspan></text>
    <text
       id="text20"
       xml:space="preserve"
       transform="matrix(0.95994252,0,0,0.95994252,68.146165,138.67274)"><tspan
         id="tspan20"
         style="font-variant:normal;font-weight:normal;font-size:12px;font-family:Times;writing-mode:lr-tb;fill:#000000;fill-opacity:1;fill-rule:nonzero;stroke:none"
         x="0"
         y="0">FNO</tspan></text>
    <text
       id="text21"
       xml:space="preserve"
       transform="matrix(0.95994252,0,0,0.95994252,175.65973,138.67274)"><tspan
         id="tspan21"
         style="font-variant:normal;font-weight:normal;font-size:12px;font-family:Times;writing-mode:lr-tb;fill:#000000;fill-opacity:1;fill-rule:nonzero;stroke:none"
         x="0"
         y="0">DMD</tspan></text>
    <text
       id="text22"
       xml:space="preserve"
       transform="matrix(0.95994252,0,0,0.95994252,156.46088,84.915954)"><tspan
         id="tspan22"
         style="font-variant:normal;font-weight:normal;font-size:12px;font-family:Times;writing-mode:lr-tb;fill:#000000;fill-opacity:1;fill-rule:nonzero;stroke:none"
         x="0"
         y="0">ESPRIT</tspan></text>
    <text
       id="text23"
       xml:space="preserve"
       transform="matrix(0.95994252,0,0,0.95994252,160.94561,113.71423)"><tspan
         id="tspan23"
         style="font-variant:normal;font-weight:normal;font-size:12px;font-family:Times;writing-mode:lr-tb;fill:#000000;fill-opacity:1;fill-rule:nonzero;stroke:none"
         x="0"
         y="0">Prony</tspan></text>
    <text
       id="text24"
       xml:space="preserve"
       transform="matrix(0.95994252,0,0,0.95994252,109.75367,64.757161)"><tspan
         id="tspan24"
         style="font-variant:normal;font-weight:normal;font-size:12px;font-family:Times;writing-mode:lr-tb;fill:#000000;fill-opacity:1;fill-rule:nonzero;stroke:none"
         x="0"
         y="0">Peak</tspan></text>
    <text
       id="text25"
       xml:space="preserve"
       transform="matrix(0.95994252,0,0,0.95994252,102.07413,79.156299)"><tspan
         id="tspan25"
         style="font-variant:normal;font-weight:normal;font-size:12px;font-family:Times;writing-mode:lr-tb;fill:#000000;fill-opacity:1;fill-rule:nonzero;stroke:none"
         x="0"
         y="0">tracking</tspan></text>
    <text
       id="text26"
       xml:space="preserve"
       transform="matrix(0.95994252,0,0,0.95994252,149.74128,61.877334)"><tspan
         id="tspan26"
         style="font-variant:normal;font-weight:normal;font-size:12px;font-family:Times;writing-mode:lr-tb;fill:#000000;fill-opacity:1;fill-rule:nonzero;stroke:none"
         x="0"
         y="0">MPM</tspan></text>
    <text
       id="text27"
       xml:space="preserve"
       transform="matrix(0.95994252,0,0,0.95994252,120.943,100.27503)"><tspan
         id="tspan27"
         style="font-variant:normal;font-weight:normal;font-size:12px;font-family:Times;writing-mode:lr-tb;fill:#000000;fill-opacity:1;fill-rule:nonzero;stroke:none"
         x="0"
         y="0">LPC</tspan></text>
    <text
       id="text28"
       xml:space="preserve"
       transform="matrix(0.95994252,0,0,0.95994252,148.15137,236.58687)"><tspan
         id="tspan28"
         style="font-variant:normal;font-weight:normal;font-size:12px;font-family:Times;writing-mode:lr-tb;fill:#000000;fill-opacity:1;fill-rule:nonzero;stroke:none"
         x="0"
         y="0">NODE</tspan></text>
    <text
       id="text29"
       xml:space="preserve"
       transform="matrix(0.95994252,0,0,0.95994252,183.98423,215.46814)"><tspan
         id="tspan29"
         style="font-variant:normal;font-weight:normal;font-size:12px;font-family:Times;writing-mode:lr-tb;fill:#000000;fill-opacity:1;fill-rule:nonzero;stroke:none"
         x="0"
         y="0">LNN</tspan></text>
    <text
       id="text30"
       xml:space="preserve"
       transform="matrix(0.95994252,0,0,0.95994252,128.00758,196.26929)"><tspan
         id="tspan30"
         style="font-variant:normal;font-weight:normal;font-size:12px;font-family:Times;writing-mode:lr-tb;fill:#000000;fill-opacity:1;fill-rule:nonzero;stroke:none"
         x="0"
         y="0">DeepONet</tspan></text>
  </g>
</svg>
